<svg width="24" height="24" viewBox="0 0 24 24" fill="none" xmlns="http://www.w3.org/2000/svg">
<path d="M4.19961 22.8004C3.85961 22.8004 3.59961 22.5865 3.59961 22.3068V2.89394C3.59961 2.61426 3.85961 2.40039 4.19961 2.40039C4.53961 2.40039 4.79961 2.61426 4.79961 2.89394V22.3068C4.79961 22.5865 4.53961 22.8004 4.19961 22.8004Z" fill="white" stroke="white" stroke-width="0.2"/>
<path d="M19.9154 22.8004C19.6408 22.8004 19.4308 22.5865 19.4308 22.3068V4.5391C19.4308 3.89749 18.93 3.38749 18.3 3.38749H12.4846C12.21 3.38749 12 3.17362 12 2.89394C12 2.61426 12.21 2.40039 12.4846 2.40039H18.3C19.4631 2.40039 20.4 3.35458 20.4 4.5391V22.3068C20.4 22.5865 20.19 22.8004 19.9154 22.8004Z" fill="white" stroke="white" stroke-width="0.2"/>
<path d="M12.7602 16.7996H7.63824C7.38946 16.7996 7.19922 16.5396 7.19922 16.1996C7.19922 15.8596 7.38946 15.5996 7.63824 15.5996H12.7602C13.009 15.5996 13.1992 15.8596 13.1992 16.1996C13.1992 16.5396 13.009 16.7996 12.7602 16.7996Z" fill="white" stroke="white" stroke-width="0.2"/>
<path d="M15.1861 13.2H7.61233C7.37824 13.2 7.19922 12.94 7.19922 12.6C7.19922 12.26 7.37824 12 7.61233 12H15.1861C15.4202 12 15.5992 12.26 15.5992 12.6C15.5992 12.94 15.4202 13.2 15.1861 13.2Z" fill="white" stroke="white" stroke-width="0.2"/>
<path d="M11.9456 7.24539L11.7923 6.96039C11.1487 5.68539 10.7963 4.27539 10.7963 2.85039C10.7963 2.59539 10.5971 2.40039 10.3366 2.40039H6.45971C6.19921 2.40039 6 2.59539 6 2.85039C6 4.99539 6.521 7.14039 7.50171 9.06039L7.65495 9.34539C7.73157 9.49539 7.8848 9.60039 8.06869 9.60039C8.23725 9.60039 8.40581 9.49539 8.48242 9.34539L9.49378 7.33539L11.4246 7.87539C11.5931 7.92039 11.7923 7.86039 11.8996 7.72539C12.0069 7.59039 12.0375 7.41039 11.9456 7.24539Z" fill="white"/>
</svg>
