<svg width="24" height="24" viewBox="0 0 24 24" fill="none" xmlns="http://www.w3.org/2000/svg">
<g clip-path="url(#clip0_143_140)">
<path d="M4.19961 22.8004C3.85961 22.8004 3.59961 22.5865 3.59961 22.3068V2.89394C3.59961 2.61426 3.85961 2.40039 4.19961 2.40039C4.53961 2.40039 4.79961 2.61426 4.79961 2.89394V22.3068C4.79961 22.5865 4.53961 22.8004 4.19961 22.8004Z" fill="#D1D1D1" stroke="#D1D1D1" stroke-width="0.2"/>
<path d="M19.9154 22.8004C19.6408 22.8004 19.4308 22.5865 19.4308 22.3068V4.5391C19.4308 3.89749 18.93 3.38749 18.3 3.38749H12.4846C12.21 3.38749 12 3.17362 12 2.89394C12 2.61426 12.21 2.40039 12.4846 2.40039H18.3C19.4631 2.40039 20.4 3.35458 20.4 4.5391V22.3068C20.4 22.5865 20.19 22.8004 19.9154 22.8004Z" fill="#D1D1D1" stroke="#D1D1D1" stroke-width="0.2"/>
<path d="M12.7602 16.7996H7.63824C7.38946 16.7996 7.19922 16.5396 7.19922 16.1996C7.19922 15.8596 7.38946 15.5996 7.63824 15.5996H12.7602C13.009 15.5996 13.1992 15.8596 13.1992 16.1996C13.1992 16.5396 13.009 16.7996 12.7602 16.7996Z" fill="#D1D1D1" stroke="#D1D1D1" stroke-width="0.2"/>
<path d="M15.1861 13.2H7.61233C7.37824 13.2 7.19922 12.94 7.19922 12.6C7.19922 12.26 7.37824 12 7.61233 12H15.1861C15.4202 12 15.5992 12.26 15.5992 12.6C15.5992 12.94 15.4202 13.2 15.1861 13.2Z" fill="#D1D1D1" stroke="#D1D1D1" stroke-width="0.2"/>
<g clip-path="url(#clip1_143_140)">
<path d="M455.5 62.5004C417.3 23.2004 355.1 4.10039 259.7 2.40039C259.6 2.40039 259.5 2.40039 259.4 2.40039C164.1 4.10039 101.9 23.2004 63.6996 62.5004C24.3996 100.7 5.29961 162.9 3.59961 258.3V258.6C5.29961 354 24.3996 416.2 63.6996 454.3C101.9 493.6 164.1 512.7 259.4 514.4H259.5H259.6C355 512.7 417.2 493.6 455.3 454.3C494.6 416.1 513.7 353.9 515.4 258.6C515.4 258.5 515.4 258.4 515.4 258.3C513.9 162.9 494.8 100.7 455.5 62.5004ZM445.2 443.9C445.1 444 445.1 444 445 444.1C409.7 480.5 350.8 498.2 259.5 499.9C168.2 498.2 109.3 480.5 73.9996 444.1C73.8996 444 73.8996 444 73.7996 443.9C37.5996 408.6 19.7996 349.7 18.1996 258.4C19.7996 167.1 37.5996 108.2 73.9996 72.9004L74.1996 72.7004C109.4 36.4004 168.3 18.6004 259.6 17.0004C350.9 18.7004 409.8 36.4004 445.1 72.8004C445.2 72.9004 445.2 72.9004 445.3 73.0004C481.7 108.3 499.4 167.2 501.1 258.5C499.4 349.7 481.6 408.6 445.2 443.9Z" fill="black"/>
</g>
<path d="M11.9456 7.24539L11.7923 6.96039C11.1487 5.68539 10.7963 4.27539 10.7963 2.85039C10.7963 2.59539 10.5971 2.40039 10.3366 2.40039H6.45971C6.19921 2.40039 6 2.59539 6 2.85039C6 4.99539 6.521 7.14039 7.50171 9.06039L7.65495 9.34539C7.73157 9.49539 7.8848 9.60039 8.06869 9.60039C8.23725 9.60039 8.40581 9.49539 8.48242 9.34539L9.49378 7.33539L11.4246 7.87539C11.5931 7.92039 11.7923 7.86039 11.8996 7.72539C12.0069 7.59039 12.0375 7.41039 11.9456 7.24539Z" fill="#D1D1D1"/>
</g>
<defs>
<clipPath id="clip0_143_140">
<rect width="24" height="24" fill="white"/>
</clipPath>
<clipPath id="clip1_143_140">
<rect width="512" height="512" fill="white" transform="translate(3.59961 2.40039)"/>
</clipPath>
</defs>
</svg>
