<svg width="32" height="32" viewBox="0 0 32 32" fill="none" xmlns="http://www.w3.org/2000/svg">
<rect x="0.5" y="0.5" width="31" height="31" rx="15.5" stroke="white"/>
<path d="M9 12L9.028 11C9.03184 10.7408 9.13464 10.4928 9.31534 10.3069C9.49604 10.121 9.74098 10.0112 10 10H10.944C11.2138 10.0025 11.4726 10.107 11.6685 10.2925C11.8644 10.478 11.9828 10.7308 12 11V12" stroke="white" stroke-linecap="round" stroke-linejoin="round"/>
<path d="M21.6557 12.1176C21.5233 12.1176 21.3937 12.0793 21.2821 12.0072C21.1704 11.935 21.0814 11.832 21.0254 11.7104C20.6483 10.8908 20.2435 10 19.4783 10H16C15.3523 10 15.0261 10.5887 14.1217 11.8296C14.0575 11.9184 13.9738 11.9906 13.8771 12.0406C13.7805 12.0906 13.6737 12.117 13.5652 12.1176H9.3913C8.34783 12.1176 8 12.5969 8 13.3339V20.6666C8 21.4028 8.34783 22 9.43026 22H22.5697C23.6522 22 24 21.4028 24 20.6666V13.3339C24 12.5969 23.6522 12.1176 22.5697 12.1176H21.6557Z" stroke="white" stroke-linecap="round" stroke-linejoin="round"/>
<path d="M15 17C15 17.7956 15.3161 18.5587 15.8787 19.1213C16.4413 19.6839 17.2044 20 18 20C18.7956 20 19.5587 19.6839 20.1213 19.1213C20.6839 18.5587 21 17.7956 21 17C21 16.2044 20.6839 15.4413 20.1213 14.8787C19.5587 14.3161 18.7956 14 18 14C17.2044 14 16.4413 14.3161 15.8787 14.8787C15.3161 15.4413 15 16.2044 15 17Z" stroke="white" stroke-linecap="round" stroke-linejoin="round"/>
</svg>
