<svg width="20" height="20" viewBox="0 0 20 20" fill="none" xmlns="http://www.w3.org/2000/svg">
<path d="M3 6L3.028 5C3.03184 4.74077 3.13464 4.49281 3.31534 4.3069C3.49604 4.12099 3.74098 4.0112 4 4H4.944C5.21378 4.00248 5.47262 4.10698 5.66851 4.29248C5.86441 4.47799 5.98283 4.73076 6 5V6" stroke="#2A2A2A" stroke-linecap="round" stroke-linejoin="round"/>
<path d="M15.6557 6.11765C15.5233 6.11763 15.3937 6.0793 15.2821 6.00716C15.1704 5.93501 15.0814 5.83205 15.0254 5.71035C14.6483 4.89082 14.2435 4 13.4783 4H10C9.35235 4 9.02609 4.58871 8.12174 5.82965C8.05753 5.91835 7.97376 5.9906 7.87713 6.0406C7.7805 6.09061 7.67369 6.11699 7.56522 6.11765H3.3913C2.34783 6.11765 2 6.59694 2 7.33388V14.6666C2 15.4028 2.34783 16 3.43026 16H16.5697C17.6522 16 18 15.4028 18 14.6666V7.33388C18 6.59694 17.6522 6.11765 16.5697 6.11765H15.6557Z" stroke="#2A2A2A" stroke-linecap="round" stroke-linejoin="round"/>
<path d="M9 11C9 11.7956 9.31607 12.5587 9.87868 13.1213C10.4413 13.6839 11.2044 14 12 14C12.7956 14 13.5587 13.6839 14.1213 13.1213C14.6839 12.5587 15 11.7956 15 11C15 10.2044 14.6839 9.44129 14.1213 8.87868C13.5587 8.31607 12.7956 8 12 8C11.2044 8 10.4413 8.31607 9.87868 8.87868C9.31607 9.44129 9 10.2044 9 11Z" stroke="#2A2A2A" stroke-linecap="round" stroke-linejoin="round"/>
</svg>
