<svg width="24" height="24" viewBox="0 0 24 24" fill="none" xmlns="http://www.w3.org/2000/svg">
<path d="M21.0136 2.98839L19.0708 3.2532L17.3054 2.40039L16.9564 4.32932L15.6006 5.74546L17.3279 6.67233L18.2549 8.40039L19.6713 7.04375L21.6006 6.69589L20.7487 4.93078L21.0136 2.98839Z" stroke="white" stroke-miterlimit="10" stroke-linecap="round" stroke-linejoin="round"/>
<path d="M6 9.59961L14.4 17.9996" stroke="white" stroke-miterlimit="10" stroke-linecap="round" stroke-linejoin="round"/>
<path d="M3.60059 18L6.00059 20.4" stroke="white" stroke-miterlimit="10" stroke-linecap="round" stroke-linejoin="round"/>
<path d="M15.6002 8.40039L13.2002 10.8004" stroke="white" stroke-miterlimit="10" stroke-linecap="round" stroke-linejoin="round"/>
<path d="M13.0239 2.57606C12.7896 2.34183 12.4099 2.34183 12.1757 2.57606C11.9414 2.81029 11.9414 3.19049 12.1757 3.42472C12.4099 3.65895 12.7896 3.65895 13.0239 3.42472C13.2587 3.19049 13.2587 2.81029 13.0239 2.57606Z" stroke="white" stroke-miterlimit="10" stroke-linecap="round" stroke-linejoin="round"/>
<path d="M10.8008 8.4C11.6319 7.50019 11.9098 6.90509 12.0008 6" stroke="white" stroke-miterlimit="10" stroke-linecap="round" stroke-linejoin="round"/>
<path d="M21.4247 10.9765C21.659 11.2107 21.659 11.5904 21.4247 11.8247C21.1904 12.0595 20.8108 12.0595 20.5765 11.8247C20.3417 11.5904 20.3417 11.2107 20.5765 10.9765C20.8108 10.7422 21.1904 10.7422 21.4247 10.9765Z" stroke="white" stroke-miterlimit="10" stroke-linecap="round" stroke-linejoin="round"/>
<path d="M15.6006 13.2C16.4996 12.3697 17.0963 12.0921 18.0006 12" stroke="white" stroke-miterlimit="10" stroke-linecap="round" stroke-linejoin="round"/>
<path d="M4.04091 21.4731L16.1886 17.4565C16.8395 17.2414 17.0077 16.5664 16.5146 16.0745C13.6521 13.2122 10.7897 10.3488 7.92727 7.48645C7.43417 6.99454 6.76033 7.16155 6.54524 7.81247L2.52844 19.9607C2.06625 21.0807 2.92087 21.9353 4.04091 21.4731Z" stroke="white" stroke-miterlimit="10" stroke-linecap="round" stroke-linejoin="round"/>
</svg>
