<svg width="40" height="40" viewBox="0 0 40 40" fill="none" xmlns="http://www.w3.org/2000/svg">
<path d="M35.0217 4.98L31.7838 5.42134L28.8414 4L28.2596 7.21488L26 9.57512L28.8788 11.1199L30.4239 14L32.7845 11.7389L36 11.1592L34.5802 8.21731L35.0217 4.98Z" stroke="#7C0DE4" stroke-miterlimit="10" stroke-linecap="round" stroke-linejoin="round"/>
<path d="M10 16L24 30" stroke="#7C0DE4" stroke-miterlimit="10" stroke-linecap="round" stroke-linejoin="round"/>
<path d="M6 30L10 34" stroke="#7C0DE4" stroke-miterlimit="10" stroke-linecap="round" stroke-linejoin="round"/>
<path d="M26 14L22 18" stroke="#7C0DE4" stroke-miterlimit="10" stroke-linecap="round" stroke-linejoin="round"/>
<path d="M21.7064 4.29278C21.316 3.90241 20.6832 3.90241 20.2928 4.29278C19.9024 4.68316 19.9024 5.31684 20.2928 5.70722C20.6832 6.09759 21.316 6.09759 21.7064 5.70722C22.0979 5.31684 22.0979 4.68316 21.7064 4.29278Z" stroke="#7C0DE4" stroke-miterlimit="10" stroke-linecap="round" stroke-linejoin="round"/>
<path d="M18 14C19.3852 12.5003 19.8483 11.5085 20 10" stroke="#7C0DE4" stroke-miterlimit="10" stroke-linecap="round" stroke-linejoin="round"/>
<path d="M35.7072 18.2928C36.0976 18.6833 36.0976 19.316 35.7072 19.7065C35.3167 20.0978 34.684 20.0978 34.2935 19.7065C33.9022 19.316 33.9022 18.6833 34.2935 18.2928C34.6839 17.9024 35.3167 17.9024 35.7072 18.2928Z" stroke="#7C0DE4" stroke-miterlimit="10" stroke-linecap="round" stroke-linejoin="round"/>
<path d="M26 22C27.4984 20.6162 28.4929 20.1535 30 20" stroke="#7C0DE4" stroke-miterlimit="10" stroke-linecap="round" stroke-linejoin="round"/>
<path d="M6.7342 35.7866L26.9803 29.0922C28.0652 28.7338 28.3455 27.6088 27.5237 26.7889C22.7529 22.0184 17.9822 17.246 13.2115 12.4755C12.3896 11.6556 11.2666 11.934 10.9081 13.0188L4.21341 33.2659C3.44311 35.1326 4.86747 36.5569 6.7342 35.7866Z" stroke="#7C0DE4" stroke-miterlimit="10" stroke-linecap="round" stroke-linejoin="round"/>
</svg>
