<svg width="20" height="20" viewBox="0 0 20 20" fill="none" xmlns="http://www.w3.org/2000/svg">
<path d="M9.50116 3.27484C9.50116 2.67926 10.1459 2.30702 10.6617 2.60481C11.1775 2.9026 11.1775 3.64708 10.6617 3.94487C10.5441 4.01277 10.4106 4.04852 10.2748 4.04852C9.84754 4.04854 9.50116 3.70215 9.50116 3.27484ZM10.2748 9.07747C9.67926 9.07744 9.30703 9.72217 9.6048 10.238C9.90256 10.7538 10.647 10.7538 10.9449 10.238C11.0128 10.1204 11.0485 9.98698 11.0485 9.85116C11.0485 9.42387 10.7021 9.07749 10.2748 9.07747ZM10.2748 15.6538C9.67926 15.6538 9.30703 16.2985 9.6048 16.8143C9.90256 17.3301 10.647 17.3301 10.9449 16.8143C11.0128 16.6967 11.0485 16.5633 11.0485 16.4275C11.0485 16.0002 10.7021 15.6538 10.2748 15.6538Z" fill="white" stroke="white" stroke-width="0.2"/>
</svg>
