<svg width="20" height="20" viewBox="0 0 20 20" fill="none" xmlns="http://www.w3.org/2000/svg">
<path d="M17.1729 6.827L6.99985 17L2 18L2.99997 13.0001L13.173 2.82711C13.4348 2.56491 13.7457 2.3569 14.088 2.21498C14.4302 2.07305 14.7971 2 15.1676 2C15.5381 2 15.905 2.07305 16.2473 2.21498C16.5895 2.3569 16.9004 2.56491 17.1622 2.82711L17.1729 2.83778C17.4351 3.09957 17.6431 3.41048 17.785 3.75274C17.927 4.09499 18 4.46187 18 4.83239C18 5.2029 17.927 5.56978 17.785 5.91204C17.6431 6.25429 17.4351 6.56521 17.1729 6.827Z" fill="#000" stroke="#000" stroke-linecap="round" stroke-linejoin="round"/>
</svg>
