<svg width="100" height="100" viewBox="0 0 100 100" fill="none" xmlns="http://www.w3.org/2000/svg">
<path d="M58.8242 78.4238H41.1758C38.8383 78.4212 36.5973 77.4915 34.9445 75.8387C33.2917 74.1859 32.362 71.9449 32.3594 69.6074V57.9336C32.3594 57.6228 32.4828 57.3247 32.7026 57.105C32.9224 56.8852 33.2204 56.7617 33.5312 56.7617C33.8421 56.7617 34.1401 56.8852 34.3599 57.105C34.5797 57.3247 34.7031 57.6228 34.7031 57.9336V69.6074C34.7052 71.3234 35.3878 72.9686 36.6012 74.182C37.8146 75.3954 39.4598 76.078 41.1758 76.0801H58.8242C60.5402 76.078 62.1854 75.3954 63.3988 74.182C64.6122 72.9686 65.2948 71.3234 65.2969 69.6074V57.9336C65.2969 57.6228 65.4203 57.3247 65.6401 57.105C65.8599 56.8852 66.158 56.7617 66.4688 56.7617C66.7796 56.7617 67.0776 56.8852 67.2974 57.105C67.5172 57.3247 67.6406 57.6228 67.6406 57.9336V69.6074C67.638 71.9449 66.7083 74.1859 65.0555 75.8387C63.4027 77.4915 61.1617 78.4212 58.8242 78.4238Z" fill="#DFD0FF"/>
<path d="M50 90.6855C49.6892 90.6855 49.3911 90.5621 49.1714 90.3423C48.9516 90.1225 48.8281 89.8245 48.8281 89.5137V77.252C48.8281 76.9412 48.9516 76.6431 49.1714 76.4233C49.3911 76.2035 49.6892 76.0801 50 76.0801C50.3108 76.0801 50.6089 76.2035 50.8286 76.4233C51.0484 76.6431 51.1719 76.9412 51.1719 77.252V89.5137C51.1719 89.8245 51.0484 90.1225 50.8286 90.3423C50.6089 90.5621 50.3108 90.6855 50 90.6855Z" fill="#DFD0FF"/>
<path d="M38.0312 64.6641H33.5391C33.2283 64.6641 32.9302 64.5406 32.7104 64.3208C32.4907 64.1011 32.3672 63.803 32.3672 63.4922C32.3672 63.1814 32.4907 62.8833 32.7104 62.6636C32.9302 62.4438 33.2283 62.3203 33.5391 62.3203H38.0312C38.3421 62.3203 38.6401 62.4438 38.8599 62.6636C39.0797 62.8833 39.2031 63.1814 39.2031 63.4922C39.2031 63.803 39.0797 64.1011 38.8599 64.3208C38.6401 64.5406 38.3421 64.6641 38.0312 64.6641Z" fill="#DFD0FF"/>
<path d="M66.4688 64.6641H61.9766C61.6658 64.6641 61.3677 64.5406 61.1479 64.3208C60.9282 64.1011 60.8047 63.803 60.8047 63.4922C60.8047 63.1814 60.9282 62.8833 61.1479 62.6636C61.3677 62.4438 61.6658 62.3203 61.9766 62.3203H66.4688C66.7796 62.3203 67.0776 62.4438 67.2974 62.6636C67.5172 62.8833 67.6406 63.1814 67.6406 63.4922C67.6406 63.803 67.5172 64.1011 67.2974 64.3208C67.0776 64.5406 66.7796 64.6641 66.4688 64.6641Z" fill="#DFD0FF"/>
<path d="M8.59375 57.9413C8.53423 57.9415 8.4748 57.9369 8.41602 57.9276C8.13927 57.8851 7.88688 57.745 7.70453 57.5325C7.52217 57.3201 7.4219 57.0494 7.42188 56.7694V43.4373C7.42133 35.0392 9.91128 26.8296 14.5768 19.8467C19.2424 12.8638 25.8739 7.42126 33.6328 4.20749C41.3916 0.993727 49.9293 0.153054 58.166 1.7918C66.4026 3.43054 73.9684 7.47508 79.9062 13.4139C83.8619 17.3472 86.9979 22.026 89.1328 27.1796C91.2678 32.3332 92.3591 37.8591 92.3438 43.4373V56.0819C92.3437 56.3565 92.2472 56.6224 92.0711 56.8331C91.895 57.0438 91.6505 57.186 91.3803 57.2348C91.1101 57.2836 90.8313 57.236 90.5925 57.1003C90.3538 56.9645 90.1704 56.7492 90.0742 56.492C89.5065 54.9844 88.6397 53.6072 87.5261 52.4432C86.4124 51.2792 85.0748 50.3524 83.5938 49.7186C83.3823 49.6286 83.202 49.4784 83.0752 49.2867C82.9485 49.095 82.8809 48.8703 82.8809 48.6405V43.4373C82.8806 39.1042 82.0269 34.8136 80.3684 30.8104C78.71 26.8073 76.2793 23.1699 73.2151 20.1062C70.151 17.0424 66.5134 14.6121 62.51 12.9541C58.5066 11.2962 54.2159 10.4429 49.8828 10.4432C31.6895 10.4432 16.8887 25.244 16.8887 43.4373V48.742C16.8875 48.9668 16.8216 49.1865 16.699 49.3748C16.5764 49.5632 16.4023 49.7124 16.1973 49.8045C14.6609 50.495 13.2884 51.5034 12.1703 52.7632C11.0523 54.023 10.214 55.5056 9.71094 57.1131C9.63754 57.3524 9.48949 57.5618 9.28846 57.7108C9.08743 57.8598 8.84398 57.9406 8.59375 57.9413ZM49.8828 3.32016C44.6144 3.31965 39.3975 4.35696 34.53 6.37285C29.6625 8.38875 25.2399 11.3437 21.5145 15.0691C17.7892 18.7944 14.8342 23.2171 12.8183 28.0846C10.8024 32.952 9.76511 38.1689 9.76562 43.4373V52.0038C11.0445 50.335 12.6765 48.9697 14.5449 48.0057V43.4373C14.5449 23.951 30.3965 8.09946 49.8828 8.09946C59.2548 8.09997 68.2429 11.8232 74.8699 18.4503C81.4969 25.0773 85.2202 34.0653 85.2207 43.4373V47.8885C87.0706 48.8034 88.7009 50.1072 90 51.7108V43.4373C89.999 32.7979 85.772 22.5946 78.2488 15.0714C70.7256 7.54815 60.5222 3.32119 49.8828 3.32016Z" fill="#DFD0FF"/>
<path d="M26.2754 81.7812H21.0684C18.7028 81.784 16.3741 81.196 14.2935 80.0704C12.2129 78.9448 10.4464 77.3174 9.1543 75.3359C9.05674 75.2081 8.98653 75.0616 8.94804 74.9055C8.90954 74.7494 8.90359 74.587 8.93054 74.4285C8.9575 74.2699 9.01679 74.1187 9.10472 73.9841C9.19266 73.8494 9.30736 73.7344 9.44168 73.646C9.576 73.5576 9.72708 73.4978 9.8855 73.4703C10.0439 73.4428 10.2063 73.4482 10.3626 73.4862C10.5188 73.5242 10.6656 73.5939 10.7937 73.691C10.9219 73.7881 11.0286 73.9106 11.1074 74.0508C12.188 75.7068 13.6651 77.0667 15.4046 78.0071C17.1441 78.9475 19.091 79.4385 21.0684 79.4355H26.2754C26.9019 79.4345 27.5024 79.1852 27.9453 78.7422C28.3883 78.2992 28.6376 77.6987 28.6387 77.0723V51.1348C28.6376 50.5083 28.3883 49.9078 27.9453 49.4648C27.5024 49.0218 26.9019 48.7725 26.2754 48.7715H21.0684C17.9163 48.7782 14.8954 50.0337 12.6671 52.2631C10.4389 54.4925 9.18485 57.514 9.17969 60.666V65.5488C9.17969 65.8596 9.05622 66.1577 8.83645 66.3775C8.61668 66.5972 8.31861 66.7207 8.00781 66.7207C7.69701 66.7207 7.39894 66.5972 7.17917 66.3775C6.9594 66.1577 6.83594 65.8596 6.83594 65.5488V60.666C6.8411 56.8914 8.34286 53.2728 11.0119 50.6037C13.681 47.9347 17.2996 46.4329 21.0742 46.4277H26.2813C27.5292 46.4293 28.7255 46.9257 29.6079 47.8081C30.4903 48.6905 30.9867 49.8869 30.9883 51.1348V77.0742C30.9867 78.3231 30.4895 79.5204 29.6058 80.4029C28.7222 81.2855 27.5243 81.7812 26.2754 81.7812Z" fill="#DFD0FF"/>
<path d="M8.46452 72.1755C8.20827 72.1753 7.95912 72.0912 7.75523 71.936C7.55134 71.7808 7.40394 71.5631 7.33561 71.3161C7.15974 70.6856 7.0292 70.0433 6.94499 69.3942C6.90562 69.0857 6.9904 68.7743 7.18068 68.5283C7.37097 68.2823 7.65116 68.122 7.95963 68.0827C8.2681 68.0433 8.57958 68.1281 8.82554 68.3184C9.07149 68.5087 9.23179 68.7889 9.27116 69.0973C9.33968 69.6356 9.44672 70.1682 9.59147 70.6911C9.63965 70.8652 9.64691 71.0481 9.61269 71.2255C9.57847 71.4029 9.5037 71.57 9.3942 71.7138C9.28471 71.8575 9.14347 71.9739 8.98152 72.054C8.81957 72.1341 8.64129 72.1757 8.46061 72.1755H8.46452Z" fill="#DFD0FF"/>
<path d="M78.9316 81.7812H73.7266C72.4787 81.7797 71.2823 81.2833 70.3999 80.4009C69.5175 79.5185 69.0211 78.3221 69.0195 77.0742V51.1348C69.0211 49.8869 69.5175 48.6905 70.3999 47.8081C71.2823 46.9257 72.4787 46.4293 73.7266 46.4277H78.9316C82.7063 46.4329 86.3248 47.9347 88.9939 50.6037C91.663 53.2728 93.1648 56.8914 93.1699 60.666V67.543C93.1648 71.3176 91.663 74.9362 88.9939 77.6052C86.3248 80.2743 82.7063 81.7761 78.9316 81.7812ZM73.7266 48.7734C73.0999 48.774 72.4991 49.0231 72.056 49.4662C71.613 49.9093 71.3638 50.5101 71.3633 51.1367V77.0742C71.3638 77.7008 71.613 78.3016 72.056 78.7447C72.4991 79.1878 73.0999 79.437 73.7266 79.4375H78.9316C82.0847 79.4323 85.1071 78.1775 87.3366 75.948C89.5662 73.7184 90.821 70.696 90.8262 67.543V60.666C90.821 57.513 89.5662 54.4906 87.3366 52.261C85.1071 50.0315 82.0847 48.7766 78.9316 48.7715L73.7266 48.7734Z" fill="#DFD0FF"/>
<path d="M69.9648 99.0234H30.0352C28.6434 99.0219 27.3092 98.4682 26.3252 97.4839C25.3413 96.4996 24.7881 95.1652 24.7871 93.7734V93.5898C24.7887 92.1985 25.3421 90.8645 26.3259 89.8806C27.3098 88.8968 28.6438 88.3433 30.0352 88.3418H69.9648C71.3566 88.3428 72.691 88.896 73.6753 89.8799C74.6596 90.8639 75.2133 92.1981 75.2148 93.5898V93.7734C75.2133 95.1653 74.6597 96.4998 73.6754 97.484C72.6912 98.4683 71.3568 99.0219 69.9648 99.0234ZM30.0352 90.6855C29.2652 90.6866 28.5271 90.9929 27.9826 91.5373C27.4382 92.0818 27.1319 92.8199 27.1309 93.5898V93.7734C27.1314 94.5437 27.4375 95.2823 27.982 95.8272C28.5265 96.3721 29.2649 96.6787 30.0352 96.6797H69.9648C70.7353 96.6787 71.4739 96.3721 72.0187 95.8273C72.5635 95.2825 72.8701 94.5439 72.8711 93.7734V93.5898C72.8701 92.8196 72.5635 92.0811 72.0186 91.5366C71.4738 90.9922 70.7351 90.6861 69.9648 90.6855H30.0352Z" fill="#DFD0FF"/>
<path d="M53.8945 73.7461H46.1055C43.6026 73.743 41.2031 72.7472 39.4335 70.9772C37.6639 69.2072 36.6686 66.8076 36.666 64.3047V57.9336C36.666 57.6228 36.7895 57.3247 37.0093 57.105C37.229 56.8852 37.5271 56.7617 37.8379 56.7617H62.1641C62.4749 56.7617 62.7729 56.8852 62.9927 57.105C63.2125 57.3247 63.3359 57.6228 63.3359 57.9336V64.3047C63.3334 66.8079 62.3378 69.2079 60.5678 70.9779C58.7977 72.748 56.3978 73.7435 53.8945 73.7461ZM39.0098 59.0977V64.2969C39.0118 66.1783 39.76 67.9821 41.0902 69.3127C42.4204 70.6433 44.224 71.3919 46.1055 71.3945H53.8945C55.7763 71.3925 57.5804 70.644 58.9111 69.3134C60.2417 67.9828 60.9901 66.1787 60.9922 64.2969V59.1055L39.0098 59.0977Z" fill="#DFD0FF"/>
<path d="M62.1641 59.1055H37.8379C37.5271 59.1055 37.229 58.982 37.0093 58.7622C36.7895 58.5425 36.666 58.2444 36.666 57.9336V39.5234C36.6676 37.0199 37.6624 34.6192 39.4321 32.8484C41.2019 31.0775 43.6019 30.0812 46.1055 30.0781H53.8945C56.3978 30.0807 58.7977 31.0763 60.5678 32.8463C62.3378 34.6164 63.3334 37.0163 63.3359 39.5195V57.9297C63.3365 58.0839 63.3065 58.2367 63.2479 58.3793C63.1892 58.522 63.103 58.6516 62.9941 58.7609C62.8852 58.8701 62.7559 58.9568 62.6134 59.0159C62.471 59.075 62.3183 59.1055 62.1641 59.1055ZM39.0098 56.7617H60.9922V39.5234C60.9912 37.641 60.2432 35.8359 58.9124 34.5044C57.5817 33.1729 55.777 32.4239 53.8945 32.4219H46.1055C44.224 32.4245 42.4204 33.1731 41.0902 34.5037C39.76 35.8343 39.0118 37.6381 39.0098 39.5195V56.7617Z" fill="#DFD0FF"/>
<path d="M62.1641 41.0391H37.8379C37.5271 41.0391 37.229 40.9156 37.0093 40.6958C36.7895 40.4761 36.666 40.178 36.666 39.8672C36.666 39.5564 36.7895 39.2583 37.0093 39.0385C37.229 38.8188 37.5271 38.6953 37.8379 38.6953H62.1641C62.4749 38.6953 62.7729 38.8188 62.9927 39.0385C63.2125 39.2583 63.3359 39.5564 63.3359 39.8672C63.3359 40.178 63.2125 40.4761 62.9927 40.6958C62.7729 40.9156 62.4749 41.0391 62.1641 41.0391Z" fill="#DFD0FF"/>
<path d="M62.1641 46.5977H37.8379C37.5271 46.5977 37.229 46.4742 37.0093 46.2544C36.7895 46.0347 36.666 45.7366 36.666 45.4258C36.666 45.115 36.7895 44.8169 37.0093 44.5971C37.229 44.3774 37.5271 44.2539 37.8379 44.2539H62.1641C62.4749 44.2539 62.7729 44.3774 62.9927 44.5971C63.2125 44.8169 63.3359 45.115 63.3359 45.4258C63.3359 45.7366 63.2125 46.0347 62.9927 46.2544C62.7729 46.4742 62.4749 46.5977 62.1641 46.5977Z" fill="#DFD0FF"/>
<path d="M62.1641 52.1484H37.8379C37.5271 52.1484 37.229 52.025 37.0093 51.8052C36.7895 51.5854 36.666 51.2874 36.666 50.9766C36.666 50.6658 36.7895 50.3677 37.0093 50.1479C37.229 49.9282 37.5271 49.8047 37.8379 49.8047H62.1641C62.4749 49.8047 62.7729 49.9282 62.9927 50.1479C63.2125 50.3677 63.3359 50.6658 63.3359 50.9766C63.3359 51.2874 63.2125 51.5854 62.9927 51.8052C62.7729 52.025 62.4749 52.1484 62.1641 52.1484Z" fill="#DFD0FF"/>
</svg>
