<svg width="20" height="21" viewBox="0 0 20 21" fill="none" xmlns="http://www.w3.org/2000/svg">
<rect x="8" y="9.5" width="10" height="7" rx="1" stroke="#2A2A2A"/>
<path d="M14.7504 12.8336C14.8691 12.9128 14.8691 13.0872 14.7504 13.1664L12.3109 14.7927C12.178 14.8813 12 14.786 12 14.6263L12 11.3737C12 11.214 12.178 11.1187 12.3109 11.2073L14.7504 12.8336Z" fill="#2A2A2A"/>
<path fill-rule="evenodd" clip-rule="evenodd" d="M2.6 4.5H11.4C11.7314 4.50002 12 4.75585 12 5.07143V8H11.6V5.07143C11.6 4.96623 11.5105 4.88095 11.4 4.88095H2.6C2.48954 4.88095 2.4 4.96623 2.4 5.07143V9.97619L4.773 7.71476C5.00748 7.49067 5.38852 7.49067 5.623 7.71476L6.84413 8.878C6.76889 8.98882 6.70449 9.10759 6.65244 9.2328L5.3415 7.98429C5.26338 7.9098 5.13662 7.9098 5.0585 7.98429L2.4 10.5162V11.9286C2.4 12.0338 2.48954 12.119 2.6 12.119H6.5V12.5H2.6C2.26863 12.5 2 12.2442 2 11.9286V5.07143C2 4.75584 2.26863 4.5 2.6 4.5ZM8.6 6.83675C8.33333 6.69012 8 6.87341 8 7.16667C8 7.37706 8.17908 7.54762 8.4 7.54762C8.47021 7.54762 8.53919 7.53002 8.6 7.49658C8.86666 7.34995 8.86666 6.98338 8.6 6.83675Z" fill="#2A2A2A"/>
<path d="M11.4 4.5L11.4 4.3H11.4V4.5ZM12 8V8.2H12.2V8H12ZM11.6 8H11.4V8.2H11.6V8ZM2.6 4.88095L2.59999 5.08095H2.6V4.88095ZM2.4 9.97619H2.2V10.4431L2.53798 10.121L2.4 9.97619ZM4.773 7.71476L4.91098 7.85954L4.91118 7.85935L4.773 7.71476ZM5.623 7.71476L5.48482 7.85935L5.48505 7.85957L5.623 7.71476ZM6.84413 8.878L7.0096 8.99033L7.10481 8.8501L6.98208 8.73318L6.84413 8.878ZM6.65244 9.2328L6.51451 9.37762L6.72535 9.57842L6.83711 9.30957L6.65244 9.2328ZM5.3415 7.98429L5.20349 8.12904L5.20357 8.12912L5.3415 7.98429ZM5.0585 7.98429L5.19643 8.12912L5.19652 8.12903L5.0585 7.98429ZM2.4 10.5162L2.26207 10.3714L2.2 10.4305V10.5162H2.4ZM6.5 12.119H6.7V11.919H6.5V12.119ZM6.5 12.5V12.7H6.7V12.5H6.5ZM8.6 6.83675L8.50363 7.01201L8.50364 7.01201L8.6 6.83675ZM8.6 7.49658L8.50364 7.32133L8.50363 7.32133L8.6 7.49658ZM11.4 4.3H2.6V4.7H11.4V4.3ZM12.2 5.07143C12.2 4.6363 11.8325 4.30002 11.4 4.3L11.4 4.7C11.6302 4.70001 11.8 4.87539 11.8 5.07143H12.2ZM12.2 8V5.07143H11.8V8H12.2ZM11.6 8.2H12V7.8H11.6V8.2ZM11.4 5.07143V8H11.8V5.07143H11.4ZM11.4 5.08095C11.4032 5.08095 11.404 5.08203 11.4035 5.08157C11.4032 5.08132 11.4024 5.0804 11.4015 5.07847C11.4006 5.07637 11.4 5.07382 11.4 5.07143H11.8C11.8 4.84669 11.6116 4.68095 11.4 4.68095V5.08095ZM2.6 5.08095H11.4V4.68095H2.6V5.08095ZM2.6 5.07143C2.6 5.07382 2.59943 5.07636 2.5985 5.07846C2.59765 5.08039 2.59677 5.08132 2.59651 5.08157C2.59602 5.08203 2.59682 5.08095 2.59999 5.08095L2.60001 4.68095C2.38839 4.68095 2.2 4.84669 2.2 5.07143H2.6ZM2.6 9.97619V5.07143H2.2V9.97619H2.6ZM4.63502 7.56998L2.26202 9.83141L2.53798 10.121L4.91098 7.85954L4.63502 7.56998ZM5.76118 7.57017C5.44939 7.2722 4.94661 7.2722 4.63482 7.57017L4.91118 7.85935C5.06836 7.70914 5.32764 7.70914 5.48482 7.85935L5.76118 7.57017ZM6.98208 8.73318L5.76095 7.56995L5.48505 7.85957L6.70619 9.02281L6.98208 8.73318ZM6.83711 9.30957C6.88392 9.19697 6.94187 9.0901 7.0096 8.99033L6.67866 8.76566C6.59592 8.88754 6.52505 9.01822 6.46776 9.15602L6.83711 9.30957ZM5.20357 8.12912L6.51451 9.37762L6.79037 9.08797L5.47943 7.83946L5.20357 8.12912ZM5.19652 8.12903C5.19593 8.1296 5.19669 8.12842 5.2 8.12842C5.20331 8.12842 5.20407 8.1296 5.20349 8.12904L5.47951 7.83954C5.32413 7.69139 5.07587 7.69138 4.92049 7.83954L5.19652 8.12903ZM2.53793 10.661L5.19643 8.12912L4.92057 7.83946L2.26207 10.3714L2.53793 10.661ZM2.6 11.9286V10.5162H2.2V11.9286H2.6ZM2.6 11.919C2.59683 11.919 2.59602 11.918 2.59651 11.9184C2.59677 11.9187 2.59764 11.9196 2.5985 11.9215C2.59943 11.9236 2.6 11.9262 2.6 11.9286H2.2C2.2 12.1533 2.38839 12.319 2.6 12.319V11.919ZM6.5 11.919H2.6V12.319H6.5V11.919ZM6.7 12.5V12.119H6.3V12.5H6.7ZM2.6 12.7H6.5V12.3H2.6V12.7ZM1.8 11.9286C1.8 12.3637 2.16748 12.7 2.6 12.7V12.3C2.36978 12.3 2.2 12.1246 2.2 11.9286H1.8ZM1.8 5.07143V11.9286H2.2V5.07143H1.8ZM2.6 4.3C2.16748 4.3 1.8 4.6363 1.8 5.07143H2.2C2.2 4.87538 2.36978 4.7 2.6 4.7V4.3ZM8.2 7.16667C8.2 7.04176 8.35576 6.9307 8.50363 7.01201L8.69637 6.6615C8.31091 6.44955 7.8 6.70506 7.8 7.16667H8.2ZM8.4 7.34762C8.28023 7.34762 8.2 7.25752 8.2 7.16667H7.8C7.8 7.4966 8.07793 7.74762 8.4 7.74762V7.34762ZM8.50363 7.32133C8.47271 7.33833 8.43694 7.34762 8.4 7.34762V7.74762C8.50349 7.74762 8.60567 7.7217 8.69637 7.67183L8.50363 7.32133ZM8.50364 7.01201C8.63212 7.08266 8.63212 7.25068 8.50364 7.32133L8.69636 7.67183C9.10121 7.44923 9.10121 6.88411 8.69636 6.6615L8.50364 7.01201Z" fill="#2A2A2A"/>
</svg>
