<svg width="20" height="21" viewBox="0 0 20 21" fill="none" xmlns="http://www.w3.org/2000/svg">
<path d="M17.04 4H2.96C2.42981 4 2 4.41574 2 4.92857V16.0714C2 16.5843 2.42981 17 2.96 17H17.04C17.5702 17 18 16.5843 18 16.0714V4.92857C18 4.41575 17.5702 4.00002 17.04 4ZM2.96 4.61905H17.04C17.2167 4.61905 17.36 4.75763 17.36 4.92857V13.6262L14.7288 11.0811C14.3536 10.717 13.744 10.717 13.3688 11.0811L11.5424 12.8477L7.7968 9.22399C7.42163 8.85984 6.81197 8.85984 6.4368 9.22399L2.64 12.8988V4.92857C2.64 4.75762 2.78327 4.61904 2.96 4.61905ZM2.64 16.0714V13.7763L6.8936 9.66197C7.0186 9.54092 7.2214 9.54092 7.3464 9.66197L14.2928 16.381H2.96C2.78327 16.381 2.64 16.2424 2.64 16.0714ZM17.04 16.381H15.2L12 13.2857L13.8264 11.5191C13.9514 11.3981 14.1542 11.3981 14.2792 11.5191L17.36 14.5014V16.0714C17.36 16.2424 17.2167 16.3809 17.04 16.381ZM11.6 8.33333C11.6 7.85679 12.1333 7.55895 12.56 7.79722C12.9867 8.03549 12.9867 8.63117 12.56 8.86944C12.4627 8.92378 12.3523 8.95238 12.24 8.95238C11.8865 8.95238 11.6 8.67522 11.6 8.33333Z" fill="#2A2A2A" stroke="#2A2A2A" stroke-width="0.2"/>
</svg>
