<svg width="20" height="20" viewBox="0 0 20 20" fill="none" xmlns="http://www.w3.org/2000/svg">
<rect x="8" y="9" width="10" height="7" rx="1" stroke="#2A2A2A"/>
<path d="M14.7504 12.3336C14.8691 12.4128 14.8691 12.5872 14.7504 12.6664L12.3109 14.2927C12.178 14.3813 12 14.286 12 14.1263L12 10.8737C12 10.714 12.178 10.6187 12.3109 10.7073L14.7504 12.3336Z" fill="#2A2A2A"/>
<path fill-rule="evenodd" clip-rule="evenodd" d="M2.6 4H11.4C11.7314 4.00002 12 4.25585 12 4.57143V7.5H11.6V4.57143C11.6 4.46623 11.5105 4.38095 11.4 4.38095H2.6C2.48954 4.38095 2.4 4.46623 2.4 4.57143V9.47619L4.773 7.21476C5.00748 6.99067 5.38852 6.99067 5.623 7.21476L6.84413 8.378C6.76889 8.48882 6.70449 8.60759 6.65244 8.7328L5.3415 7.48429C5.26338 7.4098 5.13662 7.4098 5.0585 7.48429L2.4 10.0162V11.4286C2.4 11.5338 2.48954 11.619 2.6 11.619H6.5V12H2.6C2.26863 12 2 11.7442 2 11.4286V4.57143C2 4.25584 2.26863 4 2.6 4ZM8.6 6.33675C8.33333 6.19012 8 6.37341 8 6.66667C8 6.87706 8.17908 7.04762 8.4 7.04762C8.47021 7.04762 8.53919 7.03002 8.6 6.99658C8.86666 6.84995 8.86666 6.48338 8.6 6.33675Z" fill="#2A2A2A"/>
<path d="M11.4 4L11.4 3.8H11.4V4ZM12 7.5V7.7H12.2V7.5H12ZM11.6 7.5H11.4V7.7H11.6V7.5ZM2.6 4.38095L2.59999 4.58095H2.6V4.38095ZM2.4 9.47619H2.2V9.94306L2.53798 9.62097L2.4 9.47619ZM4.773 7.21476L4.91098 7.35954L4.91118 7.35935L4.773 7.21476ZM5.623 7.21476L5.48482 7.35935L5.48505 7.35957L5.623 7.21476ZM6.84413 8.378L7.0096 8.49033L7.10481 8.3501L6.98208 8.23318L6.84413 8.378ZM6.65244 8.7328L6.51451 8.87762L6.72535 9.07842L6.83711 8.80957L6.65244 8.7328ZM5.3415 7.48429L5.20349 7.62904L5.20357 7.62912L5.3415 7.48429ZM5.0585 7.48429L5.19643 7.62912L5.19652 7.62903L5.0585 7.48429ZM2.4 10.0162L2.26207 9.87136L2.2 9.93048V10.0162H2.4ZM6.5 11.619H6.7V11.419H6.5V11.619ZM6.5 12V12.2H6.7V12H6.5ZM8.6 6.33675L8.50363 6.51201L8.50364 6.51201L8.6 6.33675ZM8.6 6.99658L8.50364 6.82133L8.50363 6.82133L8.6 6.99658ZM11.4 3.8H2.6V4.2H11.4V3.8ZM12.2 4.57143C12.2 4.1363 11.8325 3.80002 11.4 3.8L11.4 4.2C11.6302 4.20001 11.8 4.37539 11.8 4.57143H12.2ZM12.2 7.5V4.57143H11.8V7.5H12.2ZM11.6 7.7H12V7.3H11.6V7.7ZM11.4 4.57143V7.5H11.8V4.57143H11.4ZM11.4 4.58095C11.4032 4.58095 11.404 4.58203 11.4035 4.58157C11.4032 4.58132 11.4024 4.5804 11.4015 4.57847C11.4006 4.57637 11.4 4.57382 11.4 4.57143H11.8C11.8 4.34669 11.6116 4.18095 11.4 4.18095V4.58095ZM2.6 4.58095H11.4V4.18095H2.6V4.58095ZM2.6 4.57143C2.6 4.57382 2.59943 4.57636 2.5985 4.57846C2.59765 4.58039 2.59677 4.58132 2.59651 4.58157C2.59602 4.58203 2.59682 4.58095 2.59999 4.58095L2.60001 4.18095C2.38839 4.18095 2.2 4.34669 2.2 4.57143H2.6ZM2.6 9.47619V4.57143H2.2V9.47619H2.6ZM4.63502 7.06998L2.26202 9.33141L2.53798 9.62097L4.91098 7.35954L4.63502 7.06998ZM5.76118 7.07017C5.44939 6.7722 4.94661 6.7722 4.63482 7.07017L4.91118 7.35935C5.06836 7.20914 5.32764 7.20914 5.48482 7.35935L5.76118 7.07017ZM6.98208 8.23318L5.76095 7.06995L5.48505 7.35957L6.70619 8.52281L6.98208 8.23318ZM6.83711 8.80957C6.88392 8.69697 6.94187 8.5901 7.0096 8.49033L6.67866 8.26566C6.59592 8.38754 6.52505 8.51822 6.46776 8.65602L6.83711 8.80957ZM5.20357 7.62912L6.51451 8.87762L6.79037 8.58797L5.47943 7.33946L5.20357 7.62912ZM5.19652 7.62903C5.19593 7.6296 5.19669 7.62842 5.2 7.62842C5.20331 7.62842 5.20407 7.6296 5.20349 7.62904L5.47951 7.33954C5.32413 7.19139 5.07587 7.19138 4.92049 7.33954L5.19652 7.62903ZM2.53793 10.161L5.19643 7.62912L4.92057 7.33946L2.26207 9.87136L2.53793 10.161ZM2.6 11.4286V10.0162H2.2V11.4286H2.6ZM2.6 11.419C2.59683 11.419 2.59602 11.418 2.59651 11.4184C2.59677 11.4187 2.59764 11.4196 2.5985 11.4215C2.59943 11.4236 2.6 11.4262 2.6 11.4286H2.2C2.2 11.6533 2.38839 11.819 2.6 11.819V11.419ZM6.5 11.419H2.6V11.819H6.5V11.419ZM6.7 12V11.619H6.3V12H6.7ZM2.6 12.2H6.5V11.8H2.6V12.2ZM1.8 11.4286C1.8 11.8637 2.16748 12.2 2.6 12.2V11.8C2.36978 11.8 2.2 11.6246 2.2 11.4286H1.8ZM1.8 4.57143V11.4286H2.2V4.57143H1.8ZM2.6 3.8C2.16748 3.8 1.8 4.1363 1.8 4.57143H2.2C2.2 4.37538 2.36978 4.2 2.6 4.2V3.8ZM8.2 6.66667C8.2 6.54176 8.35576 6.4307 8.50363 6.51201L8.69637 6.1615C8.31091 5.94955 7.8 6.20506 7.8 6.66667H8.2ZM8.4 6.84762C8.28023 6.84762 8.2 6.75752 8.2 6.66667H7.8C7.8 6.9966 8.07793 7.24762 8.4 7.24762V6.84762ZM8.50363 6.82133C8.47271 6.83833 8.43694 6.84762 8.4 6.84762V7.24762C8.50349 7.24762 8.60567 7.2217 8.69637 7.17183L8.50363 6.82133ZM8.50364 6.51201C8.63212 6.58266 8.63212 6.75068 8.50364 6.82133L8.69636 7.17183C9.10121 6.94923 9.10121 6.38411 8.69636 6.1615L8.50364 6.51201Z" fill="#2A2A2A"/>
</svg>
