<svg width="20" height="20" viewBox="0 0 20 20" fill="none" xmlns="http://www.w3.org/2000/svg">
<path d="M17.04 3.5H2.96C2.42981 3.5 2 3.91574 2 4.42857V15.5714C2 16.0843 2.42981 16.5 2.96 16.5H17.04C17.5702 16.5 18 16.0843 18 15.5714V4.42857C18 3.91575 17.5702 3.50002 17.04 3.5ZM2.96 4.11905H17.04C17.2167 4.11905 17.36 4.25763 17.36 4.42857V13.1262L14.7288 10.5811C14.3536 10.217 13.744 10.217 13.3688 10.5811L11.5424 12.3477L7.7968 8.72399C7.42163 8.35984 6.81197 8.35984 6.4368 8.72399L2.64 12.3988V4.42857C2.64 4.25762 2.78327 4.11904 2.96 4.11905ZM2.64 15.5714V13.2763L6.8936 9.16197C7.0186 9.04092 7.2214 9.04092 7.3464 9.16197L14.2928 15.881H2.96C2.78327 15.881 2.64 15.7424 2.64 15.5714ZM17.04 15.881H15.2L12 12.7857L13.8264 11.0191C13.9514 10.8981 14.1542 10.8981 14.2792 11.0191L17.36 14.0014V15.5714C17.36 15.7424 17.2167 15.8809 17.04 15.881ZM11.6 7.83333C11.6 7.35679 12.1333 7.05895 12.56 7.29722C12.9867 7.53549 12.9867 8.13117 12.56 8.36944C12.4627 8.42378 12.3523 8.45238 12.24 8.45238C11.8865 8.45238 11.6 8.17522 11.6 7.83333Z" fill="#2A2A2A" stroke="#2A2A2A" stroke-width="0.2"/>
</svg>
