<svg width="21" height="20" viewBox="0 0 21 20" fill="none" xmlns="http://www.w3.org/2000/svg">
<path d="M16.587 7.54176H13.8478V5.3886C13.8478 2.78394 11.058 1.15603 8.82609 2.45836C7.79027 3.06277 7.15217 4.17977 7.15217 5.3886V7.54176H4.41305C3.90877 7.54174 3.5 7.95489 3.5 8.46455V17.0772C3.5 17.5869 3.90877 18 4.41305 18H16.587C17.0912 18 17.5 17.5869 17.5 17.0772V8.46455C17.5 7.95492 17.0912 7.54178 16.587 7.54176ZM7.76087 5.3886C7.76087 3.25752 10.0435 1.92559 11.8696 2.99113C12.7171 3.48565 13.2391 4.39956 13.2391 5.3886V7.54176H7.76087V5.3886ZM16.8913 17.0772C16.8913 17.2471 16.755 17.3848 16.587 17.3848H4.41305C4.24496 17.3848 4.1087 17.2471 4.1087 17.0772V8.46455C4.1087 8.29466 4.24495 8.15695 4.41305 8.15695H16.587C16.755 8.15696 16.8913 8.29467 16.8913 8.46455V17.0772ZM11.1087 12.7709C11.1087 13.2445 10.6014 13.5404 10.1957 13.3036C9.78986 13.0669 9.78986 12.4749 10.1957 12.2381C10.2882 12.1841 10.3931 12.1557 10.5 12.1557C10.8362 12.1557 11.1087 12.4311 11.1087 12.7709Z" fill="#B0B0B0" stroke="#B0B0B0" stroke-width="0.2"/>
</svg>
