<svg width="120" height="42" viewBox="0 0 120 42" fill="none" xmlns="http://www.w3.org/2000/svg">
<path fill-rule="evenodd" clip-rule="evenodd" d="M12.9271 3.35788L12.918 3.34686C12.6123 2.9757 12.2029 2.7832 11.6392 2.7832H5.7915C5.07351 2.7832 4.54675 3.01312 4.15939 3.44605C3.76583 3.88591 3.54704 4.4963 3.54704 5.32645V19.2414C3.54704 20.0716 3.76583 20.682 4.15939 21.1218C4.54675 21.5548 5.07351 21.7847 5.7915 21.7847H23.3346C24.0526 21.7847 24.5793 21.5548 24.9667 21.1218C25.3603 20.682 25.5791 20.0716 25.5791 19.2414V5.32645C25.5791 4.4963 25.3603 3.88591 24.9667 3.44605C24.5793 3.01312 24.0526 2.7832 23.3346 2.7832H17.4442C16.8807 2.7832 16.4505 2.97621 16.1136 3.35765C15.8014 3.71479 15.6266 4.20013 15.6266 4.85693V5.30156H13.4568V4.85693C13.4568 4.20774 13.2724 3.72625 12.9368 3.3683L12.9271 3.35788ZM12.8952 11.2314C12.1586 11.2314 11.5614 11.8286 11.5614 12.5653V15.2331C11.5614 15.9697 12.1586 16.5669 12.8952 16.5669H15.563C16.2997 16.5669 16.8969 15.9697 16.8969 15.2331V12.5653C16.8969 11.8286 16.2997 11.2314 15.563 11.2314H12.8952Z" fill="#8C14FC"/>
<path fill-rule="evenodd" clip-rule="evenodd" d="M37.6604 34.2259C37.7449 33.2968 37.7867 32.4712 37.7867 31.7478C37.7867 31.0244 37.7449 30.1988 37.6604 29.2697L37.66 29.2645C37.5784 28.2318 37.3359 27.3891 36.9498 26.7199L36.948 26.7168L36.9463 26.7136C36.5537 26.007 36.0347 25.4507 35.3879 25.0368L35.3791 25.0311L35.3706 25.0251C34.7438 24.5811 33.9908 24.2613 33.1023 24.0728L33.0945 24.0711L33.0867 24.0692C32.2126 23.8507 31.2501 23.7261 30.1974 23.6982C28.4052 23.6698 26.7126 23.6413 25.1194 23.6129C23.5569 23.5845 22.0087 23.5703 20.4748 23.5703C18.9409 23.5703 17.3927 23.5845 15.8303 23.6129C14.2655 23.6413 12.587 23.6698 10.7949 23.6982C9.74214 23.7261 8.76422 23.8507 7.85972 24.07L7.85486 24.0711L7.84998 24.0722C6.99018 24.2603 6.23267 24.5807 5.57199 25.0299L5.56862 25.0322C4.94875 25.4455 4.44091 26.0027 4.04598 26.7136L4.04423 26.7168L4.04243 26.7199C3.65632 27.3891 3.41376 28.2318 3.33224 29.2644L3.33182 29.2697C3.24736 30.1988 3.20557 31.0244 3.20557 31.7478C3.20557 32.4712 3.24733 33.2968 3.33179 34.2259L3.33227 34.2312C3.41376 35.2638 3.65632 36.1065 4.04243 36.7757L4.04423 36.7789L4.04598 36.782C4.44091 37.4929 4.94874 38.0501 5.56861 38.4634L5.57201 38.4657C6.23267 38.9149 6.99018 39.2353 7.84998 39.4234L7.85486 39.4245L7.85972 39.4256C8.7649 39.6451 9.74359 39.7697 10.7972 39.7974L10.7996 39.7975C12.5883 39.8543 14.2625 39.8827 15.8222 39.8827H15.8263L15.8303 39.8827C17.3927 39.9111 18.9409 39.9253 20.4748 39.9253C22.0087 39.9253 23.5568 39.9111 25.1192 39.8827L25.1233 39.8827H25.1273C26.7156 39.8827 28.404 39.8543 30.1926 39.7975L30.195 39.7974C31.2487 39.7697 32.212 39.6451 33.0867 39.4264L33.0945 39.4245L33.1023 39.4228C33.9908 39.2343 34.7438 38.9145 35.3706 38.4705L35.3791 38.4645L35.3879 38.4588C36.0347 38.0449 36.5537 37.4886 36.9463 36.782L36.948 36.7789L36.9498 36.7757C37.3359 36.1065 37.5785 35.2638 37.66 34.2312L37.6604 34.2259ZM12.4506 30.9427C12.4506 30.1242 13.205 29.4607 14.1355 29.4607H26.7722C27.7027 29.4607 28.4571 30.1242 28.4571 30.9427V32.4248C28.4571 33.2433 27.7027 33.9069 26.7722 33.9069H14.1355C13.205 33.9069 12.4506 33.2433 12.4506 32.4248V30.9427Z" fill="#8C14FC"/>
<path d="M39.8377 16.2379C39.6074 16.4682 39.3355 16.6895 39.0198 16.9008C38.6579 17.113 38.3245 17.3558 38.0202 17.6295C37.6414 17.9669 37.4879 18.4475 37.4879 18.9853V19.2414C37.4879 20.0716 37.2691 20.682 36.8755 21.1218C36.4882 21.5548 35.9614 21.7847 35.2434 21.7847H29.9933C29.2753 21.7847 28.7485 21.5548 28.3612 21.1218C27.9676 20.682 27.7488 20.0716 27.7488 19.2414V5.32645C27.7488 4.4963 27.9676 3.88591 28.3612 3.44605C28.7485 3.01312 29.2753 2.7832 29.9933 2.7832H35.2434C35.9614 2.7832 36.4882 3.01312 36.8755 3.44605C37.2691 3.88591 37.4879 4.4963 37.4879 5.32645V5.92403C37.4879 6.46529 37.6426 6.94587 38.0023 7.30552L38.0105 7.31379L38.0192 7.32161C38.3208 7.59307 38.651 7.84799 39.0091 8.0867L39.0202 8.0941L39.0317 8.10081C39.3431 8.2825 39.6109 8.48733 39.8377 8.7141L39.8551 8.73151L39.8743 8.74689C40.0276 8.86951 40.1343 9.06695 40.1343 9.42411V15.4852C40.1343 15.8405 40.0277 16.066 39.8546 16.2218L39.8459 16.2297L39.8377 16.2379Z" fill="#8C14FC"/>
<path fill-rule="evenodd" clip-rule="evenodd" d="M51.5174 3.35788L51.5083 3.34686C51.2026 2.9757 50.7932 2.7832 50.2295 2.7832H44.3818C43.6638 2.7832 43.1371 3.01312 42.7497 3.44605C42.3562 3.88591 42.1374 4.4963 42.1374 5.32645V19.2414C42.1374 20.0716 42.3562 20.682 42.7497 21.1218C43.1371 21.5548 43.6638 21.7847 44.3818 21.7847H61.9249C62.6429 21.7847 63.1697 21.5548 63.557 21.1218C63.9506 20.682 64.1694 20.0716 64.1694 19.2414V5.32645C64.1694 4.4963 63.9506 3.88591 63.557 3.44605C63.1697 3.01312 62.6429 2.7832 61.9249 2.7832H56.0345C55.4711 2.7832 55.0408 2.97621 54.7039 3.35765C54.3917 3.71479 54.2169 4.20013 54.2169 4.85693V5.30156H52.0472V4.85693C52.0472 4.20774 51.8627 3.72625 51.5272 3.3683L51.5174 3.35788ZM51.4858 11.2314C50.7491 11.2314 50.1519 11.8286 50.1519 12.5653V15.2331C50.1519 15.9697 50.7491 16.5669 51.4858 16.5669H54.1535C54.8902 16.5669 55.4874 15.9697 55.4874 15.2331V12.5653C55.4874 11.8286 54.8902 11.2314 54.1535 11.2314H51.4858Z" fill="#8C14FC"/>
<path fill-rule="evenodd" clip-rule="evenodd" d="M76.2508 34.2259C76.3352 33.2968 76.377 32.4712 76.377 31.7478C76.377 31.0244 76.3352 30.1988 76.2508 29.2697L76.2503 29.2645C76.1688 28.2318 75.9262 27.3891 75.5401 26.7199L75.5383 26.7168L75.5366 26.7136C75.144 26.007 74.625 25.4507 73.9782 25.0368L73.9694 25.0311L73.9609 25.0251C73.3341 24.5811 72.5811 24.2613 71.6927 24.0728L71.6848 24.0711L71.6771 24.0692C70.803 23.8507 69.8405 23.7261 68.7877 23.6982C66.9956 23.6698 65.3029 23.6413 63.7097 23.6129C62.1473 23.5845 60.599 23.5703 59.0651 23.5703C57.5312 23.5703 55.9831 23.5845 54.4206 23.6129C52.8558 23.6413 51.1774 23.6698 49.3852 23.6982C48.3325 23.7261 47.3546 23.8507 46.45 24.07L46.4452 24.0711L46.4403 24.0722C45.5805 24.2603 44.823 24.5807 44.1623 25.0299L44.159 25.0322C43.5391 25.4455 43.0312 26.0027 42.6363 26.7136L42.6346 26.7168L42.6328 26.7199C42.2467 27.3891 42.0041 28.2318 41.9226 29.2644L41.9222 29.2697C41.8377 30.1988 41.7959 31.0244 41.7959 31.7478C41.7959 32.4712 41.8377 33.2968 41.9221 34.2259L41.9226 34.2312C42.0041 35.2638 42.2467 36.1065 42.6328 36.7757L42.6346 36.7789L42.6363 36.782C43.0312 37.4929 43.5391 38.0501 44.1589 38.4634L44.1623 38.4657C44.823 38.9149 45.5805 39.2353 46.4403 39.4234L46.4452 39.4245L46.45 39.4256C47.3552 39.6451 48.3339 39.7697 49.3876 39.7974L49.39 39.7975C51.1786 39.8543 52.8528 39.8827 54.4126 39.8827H54.4166L54.4206 39.8827C55.9831 39.9111 57.5312 39.9253 59.0651 39.9253C60.599 39.9253 62.1471 39.9111 63.7096 39.8827L63.7136 39.8827H63.7177C65.3059 39.8827 66.9943 39.8543 68.7829 39.7975L68.7854 39.7974C69.839 39.7697 70.8023 39.6451 71.6771 39.4264L71.6848 39.4245L71.6927 39.4228C72.5811 39.2343 73.3341 38.9145 73.9609 38.4705L73.9694 38.4645L73.9782 38.4588C74.625 38.0449 75.144 37.4886 75.5366 36.782L75.5383 36.7789L75.5401 36.7757C75.9262 36.1065 76.1688 35.2638 76.2503 34.2312L76.2508 34.2259ZM51.041 30.9427C51.041 30.1242 51.7953 29.4607 52.7259 29.4607H65.3625C66.2931 29.4607 67.0474 30.1242 67.0474 30.9427V32.4248C67.0474 33.2433 66.2931 33.9069 65.3625 33.9069H52.7259C51.7953 33.9069 51.041 33.2433 51.041 32.4248V30.9427Z" fill="#8C14FC"/>
<path d="M78.428 16.2379C78.1977 16.4682 77.9258 16.6895 77.6101 16.9008C77.2483 17.113 76.9148 17.3558 76.6106 17.6295C76.2317 17.9669 76.0782 18.4475 76.0782 18.9853V19.2414C76.0782 20.0716 75.8594 20.682 75.4659 21.1218C75.0785 21.5548 74.5517 21.7847 73.8338 21.7847H68.5836C67.8656 21.7847 67.3389 21.5548 66.9515 21.1218C66.558 20.682 66.3392 20.0716 66.3392 19.2414V5.32645C66.3392 4.4963 66.558 3.88591 66.9515 3.44605C67.3389 3.01312 67.8656 2.7832 68.5836 2.7832H73.8338C74.5517 2.7832 75.0785 3.01312 75.4659 3.44605C75.8594 3.88591 76.0782 4.4963 76.0782 5.32645V5.92403C76.0782 6.46529 76.2329 6.94587 76.5926 7.30552L76.6009 7.31379L76.6096 7.32161C76.9112 7.59307 77.2413 7.84799 77.5994 8.0867L77.6105 8.0941L77.622 8.10081C77.9335 8.2825 78.2012 8.48733 78.428 8.7141L78.4454 8.73151L78.4646 8.74689C78.6179 8.86951 78.7246 9.06695 78.7246 9.42411V15.4852C78.7246 15.8405 78.6181 16.066 78.445 16.2218L78.4363 16.2297L78.428 16.2379Z" fill="#8C14FC"/>
<path fill-rule="evenodd" clip-rule="evenodd" d="M86.2176 30.7858H82.6571C81.9391 30.7858 81.4123 31.0157 81.025 31.4487C80.6314 31.8885 80.4126 32.4989 80.4126 33.3291V37.256C80.4126 38.0861 80.6314 38.6965 81.025 39.1364C81.4123 39.5693 81.9391 39.7992 82.6571 39.7992H100.2C100.918 39.7992 101.445 39.5693 101.832 39.1364C102.226 38.6965 102.445 38.0861 102.445 37.256V33.3291C102.445 32.4989 102.226 31.8885 101.832 31.4487C101.445 31.0157 100.918 30.7858 100.2 30.7858H96.5542V26.8233H100.2C100.918 26.8233 101.445 26.5934 101.832 26.1605C102.226 25.7206 102.445 25.1102 102.445 24.2801V5.32841C102.445 4.49825 102.226 3.88787 101.832 3.448C101.445 3.01507 100.918 2.78516 100.2 2.78516H94.7366C94.0186 2.78516 93.4919 3.01507 93.1045 3.448C92.7109 3.88787 92.4922 4.49825 92.4922 5.32841V6.62671H90.3224V5.32841C90.3224 4.49825 90.1036 3.88787 89.71 3.448C89.3227 3.01507 88.7959 2.78516 88.0779 2.78516H82.6571C81.9391 2.78516 81.4123 3.01507 81.025 3.448C80.6314 3.88787 80.4126 4.49825 80.4126 5.32841V24.2801C80.4126 25.1102 80.6314 25.7206 81.025 26.1605C81.4123 26.5934 81.9391 26.8233 82.6571 26.8233H86.2176V30.7858ZM90.2603 15.2346C89.2781 15.2346 88.4818 16.0309 88.4818 17.0131V18.7916C88.4818 19.7739 89.2781 20.5701 90.2603 20.5701H92.0388C93.0211 20.5701 93.8173 19.7739 93.8173 18.7916V17.0131C93.8173 16.0309 93.0211 15.2346 92.0388 15.2346H90.2603Z" fill="#8C14FC"/>
<path d="M114.876 15.2976L114.868 15.2894C114.508 14.9297 114.353 14.4491 114.353 13.9079V5.32841C114.353 4.49825 114.135 3.88787 113.741 3.448C113.354 3.01507 112.827 2.78516 112.109 2.78516H106.859C106.141 2.78516 105.614 3.01507 105.227 3.448C104.833 3.88787 104.614 4.49825 104.614 5.32841V37.256C104.614 38.0861 104.833 38.6965 105.227 39.1364C105.614 39.5693 106.141 39.7992 106.859 39.7992H112.109C112.827 39.7992 113.354 39.5693 113.741 39.1364C114.135 38.6965 114.353 38.0861 114.353 37.256V27.396C114.353 26.8584 114.507 26.3778 114.885 26.0405C115.19 25.7667 115.523 25.5237 115.885 25.3115C116.201 25.1002 116.473 24.8789 116.703 24.6486L116.712 24.6404L116.72 24.6325C116.893 24.4767 117 24.2512 117 23.8959V17.408C117 17.0508 116.893 16.8534 116.74 16.7307L116.721 16.7154L116.703 16.6979C116.476 16.4712 116.209 16.2664 115.897 16.0847L115.886 16.0779L115.875 16.0706C115.517 15.8318 115.186 15.5769 114.885 15.3055L114.876 15.2976Z" fill="#8C14FC"/>
</svg>
