<svg width="16" height="16" viewBox="0 0 16 16" fill="none" xmlns="http://www.w3.org/2000/svg">
<g clip-path="url(#clip0_492_994)">
<path d="M14.8369 5.99902H14.4056C14.2216 5.99902 14.0723 6.14836 14.0723 6.33236C14.0723 6.51636 14.2216 6.66569 14.4056 6.66569H14.8369C15.0209 6.66569 15.1703 6.51636 15.1703 6.33236C15.1703 6.14836 15.0209 5.99902 14.8369 5.99902Z" fill="#2A2A2A"/>
<path d="M13.5809 4.10138C13.6662 4.10138 13.7515 4.06872 13.8169 4.00405L14.1222 3.69872C14.2522 3.56872 14.2522 3.35738 14.1222 3.22738C13.9922 3.09738 13.7809 3.09738 13.6509 3.22738L13.3455 3.53272C13.2155 3.66272 13.2155 3.87405 13.3455 4.00405C13.4109 4.06938 13.4955 4.10138 13.5809 4.10138Z" fill="#2A2A2A"/>
<path d="M13.8169 8.66098C13.6869 8.53098 13.4755 8.53098 13.3455 8.66098C13.2155 8.79098 13.2155 9.00231 13.3455 9.13231L13.6509 9.43764C13.7162 9.50298 13.8015 9.53498 13.8869 9.53498C13.9722 9.53498 14.0575 9.50231 14.1229 9.43764C14.2529 9.30764 14.2529 9.09631 14.1229 8.96631L13.8169 8.66098Z" fill="#2A2A2A"/>
<path d="M10.7604 0.661799C10.6351 0.654466 10.5144 0.718466 10.4531 0.833133C10.4384 0.855133 8.88377 3.03713 6.65177 2.7898C4.69044 2.5758 3.29243 2.81113 2.46777 3.0458C1.59777 3.29313 0.961102 4.07713 0.883768 4.99513C0.848435 5.40913 0.829102 5.74447 0.829102 6.33247C0.829102 6.92047 0.848435 7.25647 0.883768 7.6698C0.936435 8.2978 1.2511 8.86247 1.72243 9.23647C2.09643 10.9411 2.8171 12.9171 3.5711 14.2978C3.9151 14.9271 4.5651 15.3338 5.22777 15.3338H5.22977C5.61843 15.3338 5.96777 15.2085 6.26844 14.9618C6.78177 14.5411 7.0251 13.8131 6.8891 13.1078C6.70377 12.1451 6.3711 11.0305 5.94577 9.93513C6.17244 9.9218 6.40777 9.9018 6.65177 9.87513C8.8831 9.6338 10.4378 11.8091 10.4431 11.8185C10.5004 11.9291 10.6151 11.9978 10.7384 11.9978C10.7438 11.9978 10.7491 11.9978 10.7544 11.9978C10.8838 11.9911 10.9984 11.9105 11.0471 11.7898C11.0784 11.7125 11.8124 9.85047 11.8124 6.33247C11.8124 2.81447 11.0778 0.953133 11.0471 0.875133C10.9984 0.754466 10.8891 0.667133 10.7591 0.661133L10.7604 0.661799ZM6.2351 13.2345C6.3251 13.7031 6.17244 14.1791 5.84644 14.4465C5.66577 14.5951 5.46377 14.6671 5.22977 14.6678H5.22844C4.80577 14.6678 4.3851 14.3971 4.1571 13.9785C3.50844 12.7905 2.88443 11.1425 2.5011 9.6298C3.11243 9.80047 4.02577 9.9678 5.2391 9.9598C5.69177 11.0878 6.0451 12.2465 6.23577 13.2351L6.2351 13.2345ZM10.6084 10.9725C10.0011 10.3071 8.7251 9.18913 7.01177 9.18913C6.8711 9.18913 6.72644 9.19713 6.57977 9.21313C4.7251 9.41513 3.41977 9.1978 2.65043 8.97847C2.04577 8.80647 1.60243 8.2578 1.54843 7.6138C1.51443 7.2098 1.49643 6.90047 1.49643 6.33313C1.49643 5.7658 1.51377 5.45647 1.54843 5.0518C1.6031 4.4078 2.04577 3.85913 2.65043 3.68713C3.4191 3.46847 4.7251 3.25047 6.57977 3.45247C8.50377 3.66247 9.9371 2.42447 10.6071 1.68913C10.8198 2.46847 11.1478 4.04113 11.1478 6.33247C11.1478 8.6238 10.8211 10.1925 10.6084 10.9725Z" fill="#2A2A2A"/>
</g>
<defs>
<clipPath id="clip0_492_994">
<rect width="16" height="16" fill="white"/>
</clipPath>
</defs>
</svg>
