<svg width="300" height="167" viewBox="0 0 300 167" fill="none" xmlns="http://www.w3.org/2000/svg">
<path fill-rule="evenodd" clip-rule="evenodd" d="M61.7259 25.8781L61.7086 25.857C61.1263 25.1499 60.3462 24.7832 59.2724 24.7832H48.1317C46.7638 24.7832 45.7602 25.2212 45.0223 26.046C44.2725 26.884 43.8556 28.0469 43.8556 29.6285V56.1385C43.8556 57.7201 44.2725 58.883 45.0223 59.721C45.7602 60.5458 46.7638 60.9838 48.1317 60.9838H81.5539C82.9217 60.9838 83.9253 60.5458 84.6633 59.721C85.4131 58.883 85.8299 57.7201 85.8299 56.1385V29.6285C85.8299 28.0469 85.4131 26.884 84.6633 26.046C83.9253 25.2212 82.9217 24.7832 81.5539 24.7832H70.3318C69.2583 24.7832 68.4386 25.1509 67.7968 25.8776C67.202 26.558 66.869 27.4827 66.869 28.734V29.581H62.7352V28.734C62.7352 27.4972 62.3839 26.5798 61.7446 25.8979L61.7259 25.8781ZM61.6654 40.8784C60.2619 40.8784 59.1241 42.0161 59.1241 43.4196V48.502C59.1241 49.9055 60.2619 51.0432 61.6654 51.0432H66.7478C68.1513 51.0432 69.289 49.9055 69.289 48.502V43.4196C69.289 42.0161 68.1513 40.8784 66.7478 40.8784H61.6654Z" fill="#E7E7E7"/>
<path fill-rule="evenodd" clip-rule="evenodd" d="M108.847 84.6862C109.008 82.9161 109.087 81.3432 109.087 79.9651C109.087 78.5869 109.008 77.014 108.847 75.2439L108.846 75.2339C108.69 73.2666 108.228 71.6611 107.493 70.3861L107.489 70.3802L107.486 70.3742C106.738 69.0279 105.749 67.9682 104.517 67.1795L104.5 67.1688L104.484 67.1573C103.29 66.3115 101.855 65.7021 100.163 65.343L100.148 65.3399L100.133 65.3362C98.4678 64.9199 96.6341 64.6825 94.6284 64.6294C91.2142 64.5752 87.9894 64.521 84.9541 64.4668C81.9775 64.4127 79.0277 64.3857 76.1055 64.3857C73.1832 64.3857 70.2337 64.4127 67.2571 64.4668C64.2759 64.521 61.0781 64.5752 57.6638 64.6294C55.6582 64.6825 53.7951 64.9199 52.0719 65.3376L52.0627 65.3399L52.0534 65.3419C50.4153 65.7002 48.9722 66.3106 47.7135 67.1665L47.707 67.1709C46.5261 67.9582 45.5586 69.0198 44.8062 70.3742L44.8029 70.3802L44.7994 70.3861C44.0638 71.6611 43.6017 73.2666 43.4464 75.2339L43.4456 75.2439C43.2847 77.014 43.2051 78.5869 43.2051 79.9651C43.2051 81.3432 43.2846 82.9161 43.4456 84.6862L43.4465 84.6962C43.6017 86.6635 44.0638 88.269 44.7994 89.544L44.8029 89.5499L44.8062 89.5559C45.5586 90.9103 46.5261 91.9719 47.707 92.7592L47.7135 92.7635C48.9722 93.6195 50.4153 94.2299 52.0534 94.5882L52.0627 94.5902L52.0719 94.5925C53.7964 95.0105 55.661 95.248 57.6683 95.3008L57.6729 95.3009C61.0806 95.4091 64.2701 95.4631 67.2417 95.4631H67.2494L67.2571 95.4633C70.2337 95.5174 73.1832 95.5445 76.1055 95.5445C79.0277 95.5445 81.9772 95.5174 84.9539 95.4633L84.9616 95.4631H84.9693C87.9952 95.4631 91.2118 95.4091 94.6194 95.3009L94.624 95.3008C96.6314 95.248 98.4666 95.0106 100.133 94.5939L100.148 94.5902L100.163 94.5871C101.855 94.228 103.29 93.6186 104.484 92.7728L104.5 92.7613L104.517 92.7506C105.749 91.9619 106.738 90.9022 107.486 89.5559L107.489 89.5499L107.493 89.544C108.228 88.269 108.691 86.6635 108.846 84.6962L108.847 84.6862ZM60.8183 78.4313C60.8183 76.8719 62.2554 75.6077 64.0282 75.6077H88.103C89.8758 75.6077 91.313 76.8719 91.313 78.4313V81.2549C91.313 82.8143 89.8758 84.0784 88.103 84.0784H64.0282C62.2554 84.0784 60.8183 82.8143 60.8183 81.2549V78.4313Z" fill="#E7E7E7"/>
<path d="M112.995 50.4164C112.556 50.8552 112.038 51.2767 111.436 51.6794C110.747 52.0835 110.112 52.5461 109.532 53.0676C108.81 53.7103 108.518 54.626 108.518 55.6506V56.1385C108.518 57.7201 108.101 58.883 107.351 59.721C106.613 60.5458 105.61 60.9838 104.242 60.9838H94.2396C92.8718 60.9838 91.8682 60.5458 91.1302 59.721C90.3804 58.883 89.9636 57.7201 89.9636 56.1385V29.6285C89.9636 28.0469 90.3804 26.884 91.1302 26.046C91.8682 25.2212 92.8718 24.7832 94.2396 24.7832H104.242C105.61 24.7832 106.613 25.2212 107.351 26.046C108.101 26.884 108.518 28.0469 108.518 29.6285V30.7669C108.518 31.7981 108.813 32.7137 109.498 33.3989L109.514 33.4146L109.53 33.4295C110.105 33.9467 110.734 34.4324 111.416 34.8872L111.437 34.9012L111.459 34.914C112.052 35.2602 112.563 35.6504 112.995 36.0824L113.028 36.1156L113.064 36.1449C113.356 36.3785 113.56 36.7547 113.56 37.4351V48.9824C113.56 49.6593 113.357 50.089 113.027 50.3858L113.01 50.4007L112.995 50.4164Z" fill="#E7E7E7"/>
<path fill-rule="evenodd" clip-rule="evenodd" d="M135.245 25.8781L135.228 25.857C134.646 25.1499 133.866 24.7832 132.792 24.7832H121.651C120.283 24.7832 119.28 25.2212 118.542 26.046C117.792 26.884 117.375 28.0469 117.375 29.6285V56.1385C117.375 57.7201 117.792 58.883 118.542 59.721C119.28 60.5458 120.283 60.9838 121.651 60.9838H155.073C156.441 60.9838 157.445 60.5458 158.183 59.721C158.933 58.883 159.349 57.7201 159.349 56.1385V29.6285C159.349 28.0469 158.933 26.884 158.183 26.046C157.445 25.2212 156.441 24.7832 155.073 24.7832H143.851C142.778 24.7832 141.958 25.1509 141.316 25.8776C140.722 26.558 140.388 27.4827 140.388 28.734V29.581H136.255V28.734C136.255 27.4972 135.903 26.5798 135.264 25.8979L135.245 25.8781ZM135.185 40.8784C133.782 40.8784 132.644 42.0161 132.644 43.4196V48.502C132.644 49.9055 133.782 51.0432 135.185 51.0432H140.268C141.671 51.0432 142.809 49.9055 142.809 48.502V43.4196C142.809 42.0161 141.671 40.8784 140.268 40.8784H135.185Z" fill="#E7E7E7"/>
<path fill-rule="evenodd" clip-rule="evenodd" d="M182.366 84.6862C182.527 82.9161 182.607 81.3432 182.607 79.9651C182.607 78.5869 182.527 77.014 182.366 75.2439L182.365 75.2339C182.21 73.2666 181.748 71.6611 181.012 70.3861L181.009 70.3802L181.006 70.3742C180.258 69.0279 179.269 67.9682 178.037 67.1795L178.02 67.1688L178.004 67.1573C176.81 66.3115 175.375 65.7021 173.682 65.343L173.667 65.3399L173.653 65.3362C171.987 64.9199 170.154 64.6825 168.148 64.6294C164.734 64.5752 161.509 64.521 158.474 64.4668C155.497 64.4127 152.547 64.3857 149.625 64.3857C146.703 64.3857 143.753 64.4127 140.777 64.4668C137.795 64.521 134.598 64.5752 131.183 64.6294C129.178 64.6825 127.315 64.9199 125.591 65.3376L125.582 65.3399L125.573 65.3419C123.935 65.7002 122.492 66.3106 121.233 67.1665L121.227 67.1709C120.046 67.9582 119.078 69.0198 118.326 70.3742L118.322 70.3802L118.319 70.3861C117.583 71.6611 117.121 73.2666 116.966 75.2339L116.965 75.2439C116.804 77.014 116.725 78.5869 116.725 79.9651C116.725 81.3432 116.804 82.9161 116.965 84.6862L116.966 84.6962C117.121 86.6635 117.583 88.269 118.319 89.544L118.322 89.5499L118.326 89.5559C119.078 90.9103 120.046 91.9719 121.227 92.7592L121.233 92.7635C122.492 93.6195 123.935 94.2299 125.573 94.5882L125.582 94.5902L125.591 94.5925C127.316 95.0105 129.181 95.248 131.188 95.3008L131.192 95.3009C134.6 95.4091 137.79 95.4631 140.761 95.4631H140.769L140.777 95.4633C143.753 95.5174 146.703 95.5445 149.625 95.5445C152.547 95.5445 155.497 95.5174 158.473 95.4633L158.481 95.4631H158.489C161.515 95.4631 164.731 95.4091 168.139 95.3009L168.143 95.3008C170.151 95.248 171.986 95.0106 173.653 94.5939L173.667 94.5902L173.682 94.5871C175.375 94.228 176.81 93.6186 178.004 92.7728L178.02 92.7613L178.037 92.7506C179.269 91.9619 180.258 90.9022 181.006 89.5559L181.009 89.5499L181.012 89.544C181.748 88.269 182.21 86.6635 182.365 84.6962L182.366 84.6862ZM134.338 78.4313C134.338 76.8719 135.775 75.6077 137.548 75.6077H161.623C163.395 75.6077 164.833 76.8719 164.833 78.4313V81.2549C164.833 82.8143 163.395 84.0784 161.623 84.0784H137.548C135.775 84.0784 134.338 82.8143 134.338 81.2549V78.4313Z" fill="#E7E7E7"/>
<path d="M186.514 50.4164C186.075 50.8552 185.557 51.2767 184.956 51.6794C184.267 52.0835 183.631 52.5461 183.052 53.0676C182.33 53.7103 182.037 54.626 182.037 55.6506V56.1385C182.037 57.7201 181.621 58.883 180.871 59.721C180.133 60.5458 179.129 60.9838 177.761 60.9838H167.759C166.391 60.9838 165.388 60.5458 164.65 59.721C163.9 58.883 163.483 57.7201 163.483 56.1385V29.6285C163.483 28.0469 163.9 26.884 164.65 26.046C165.388 25.2212 166.391 24.7832 167.759 24.7832H177.761C179.129 24.7832 180.133 25.2212 180.871 26.046C181.621 26.884 182.037 28.0469 182.037 29.6285V30.7669C182.037 31.7981 182.332 32.7137 183.017 33.3989L183.033 33.4146L183.05 33.4295C183.624 33.9467 184.253 34.4324 184.936 34.8872L184.957 34.9012L184.979 34.914C185.572 35.2602 186.082 35.6504 186.514 36.0824L186.547 36.1156L186.584 36.1449C186.876 36.3785 187.079 36.7547 187.079 37.4351V48.9824C187.079 49.6593 186.876 50.089 186.546 50.3858L186.53 50.4007L186.514 50.4164Z" fill="#E7E7E7"/>
<path fill-rule="evenodd" clip-rule="evenodd" d="M201.354 78.1325H194.571C193.203 78.1325 192.2 78.5705 191.462 79.3953C190.712 80.2333 190.295 81.3962 190.295 82.9778V90.4591C190.295 92.0407 190.712 93.2036 191.462 94.0416C192.2 94.8664 193.203 95.3044 194.571 95.3044H227.993C229.361 95.3044 230.365 94.8664 231.103 94.0416C231.852 93.2036 232.269 92.0407 232.269 90.4591V82.9778C232.269 81.3962 231.852 80.2333 231.103 79.3953C230.365 78.5705 229.361 78.1325 227.993 78.1325H221.047V70.5834H227.993C229.361 70.5834 230.365 70.1454 231.103 69.3206C231.852 68.4825 232.269 67.3197 232.269 65.7381V29.6324C232.269 28.0508 231.852 26.8879 231.103 26.0499C230.365 25.2251 229.361 24.7871 227.993 24.7871H217.584C216.216 24.7871 215.213 25.2251 214.475 26.0499C213.725 26.8879 213.308 28.0508 213.308 29.6324V32.1058H209.175V29.6324C209.175 28.0508 208.758 26.8879 208.008 26.0499C207.27 25.2251 206.266 24.7871 204.898 24.7871H194.571C193.203 24.7871 192.2 25.2251 191.462 26.0499C190.712 26.8879 190.295 28.0508 190.295 29.6324V65.7381C190.295 67.3197 190.712 68.4825 191.462 69.3206C192.2 70.1454 193.203 70.5834 194.571 70.5834H201.354V78.1325ZM209.056 48.5052C207.185 48.5052 205.668 50.0222 205.668 51.8935V55.2818C205.668 57.1531 207.185 58.6701 209.056 58.6701H212.445C214.316 58.6701 215.833 57.1531 215.833 55.2818V51.8935C215.833 50.0222 214.316 48.5052 212.445 48.5052H209.056Z" fill="#E7E7E7"/>
<path d="M255.953 48.6252L255.937 48.6095C255.252 47.9243 254.957 47.0087 254.957 45.9775V29.6324C254.957 28.0508 254.54 26.8879 253.791 26.0499C253.053 25.2251 252.049 24.7871 250.681 24.7871H240.679C239.311 24.7871 238.308 25.2251 237.57 26.0499C236.82 26.8879 236.403 28.0508 236.403 29.6324V90.4591C236.403 92.0407 236.82 93.2036 237.57 94.0416C238.308 94.8664 239.311 95.3044 240.679 95.3044H250.681C252.049 95.3044 253.053 94.8664 253.791 94.0416C254.54 93.2036 254.957 92.0407 254.957 90.4591V71.6744C254.957 70.6502 255.25 69.7347 255.971 69.092C256.551 68.5703 257.186 68.1075 257.876 67.7032C258.477 67.3005 258.995 66.879 259.434 66.4402L259.45 66.4245L259.466 66.4096C259.796 66.1128 259.999 65.6831 259.999 65.0062V52.6457C259.999 51.9653 259.796 51.5891 259.504 51.3555L259.467 51.3262L259.434 51.293C259.002 50.861 258.492 50.4708 257.898 50.1246L257.876 50.1118L257.855 50.0978C257.173 49.643 256.544 49.1573 255.97 48.6401L255.953 48.6252Z" fill="#E7E7E7"/>
<path d="M53.0655 144.98H64.7855V147.08H53.0655V144.98ZM51.0055 150.76H67.7855V152.88H51.0055V150.76ZM63.1855 144.98H65.8055V146.24C65.8055 146.907 65.7855 147.667 65.7455 148.52C65.7055 149.36 65.5655 150.32 65.3255 151.4L62.7055 151.16C62.9455 150.107 63.0855 149.187 63.1255 148.4C63.1655 147.613 63.1855 146.893 63.1855 146.24V144.98ZM52.8655 154.14H65.7655V159.34H55.5455V161.22H52.8855V157.38H63.1055V156.18H52.8655V154.14ZM52.8855 160.58H66.2455V162.64H52.8855V160.58ZM82.104 144.22H84.764V162.8H82.104V144.22ZM74.784 145.52C75.7307 145.52 76.5707 145.793 77.304 146.34C78.0373 146.873 78.6107 147.64 79.024 148.64C79.4507 149.627 79.664 150.793 79.664 152.14C79.664 153.5 79.4507 154.68 79.024 155.68C78.6107 156.667 78.0373 157.433 77.304 157.98C76.5707 158.513 75.7307 158.78 74.784 158.78C73.8507 158.78 73.0173 158.513 72.284 157.98C71.5507 157.433 70.9707 156.667 70.544 155.68C70.1307 154.68 69.924 153.5 69.924 152.14C69.924 150.793 70.1307 149.627 70.544 148.64C70.9707 147.64 71.5507 146.873 72.284 146.34C73.0173 145.793 73.8507 145.52 74.784 145.52ZM74.784 147.94C74.3307 147.94 73.9307 148.1 73.584 148.42C73.2373 148.74 72.964 149.213 72.764 149.84C72.5773 150.453 72.484 151.22 72.484 152.14C72.484 153.047 72.5773 153.82 72.764 154.46C72.964 155.087 73.2373 155.56 73.584 155.88C73.9307 156.2 74.3307 156.36 74.784 156.36C75.2507 156.36 75.6573 156.2 76.004 155.88C76.3507 155.56 76.6173 155.087 76.804 154.46C77.004 153.82 77.104 153.047 77.104 152.14C77.104 151.22 77.004 150.453 76.804 149.84C76.6173 149.213 76.3507 148.74 76.004 148.42C75.6573 148.1 75.2507 147.94 74.784 147.94ZM99.3229 146.2H101.683V146.66C101.683 147.393 101.523 148.093 101.203 148.76C100.896 149.427 100.443 150.033 99.8429 150.58C99.2429 151.113 98.4896 151.56 97.5829 151.92C96.6896 152.28 95.6562 152.533 94.4829 152.68L93.5029 150.56C94.3029 150.467 95.0162 150.327 95.6429 150.14C96.2829 149.953 96.8296 149.733 97.2829 149.48C97.7496 149.213 98.1296 148.927 98.4229 148.62C98.7296 148.3 98.9562 147.973 99.1029 147.64C99.2496 147.307 99.3229 146.98 99.3229 146.66V146.2ZM100.623 146.2H102.963V146.66C102.963 146.98 103.036 147.307 103.183 147.64C103.33 147.973 103.556 148.3 103.863 148.62C104.17 148.927 104.55 149.213 105.003 149.48C105.456 149.733 105.996 149.953 106.623 150.14C107.263 150.327 107.983 150.467 108.783 150.56L107.823 152.68C106.636 152.533 105.596 152.28 104.703 151.92C103.81 151.56 103.056 151.113 102.443 150.58C101.843 150.033 101.39 149.433 101.083 148.78C100.776 148.113 100.623 147.407 100.623 146.66V146.2ZM94.3029 145.04H108.023V147.14H94.3029V145.04ZM94.8029 160.32H107.643V162.46H94.8029V160.32ZM94.8029 157.16H97.4629V161.1H94.8029V157.16ZM92.7629 153.9H109.543V156.02H92.7629V153.9ZM99.7829 151.36H102.443V154.76H99.7829V151.36ZM124.681 144.24H127.221V162.76H124.681V144.24ZM122.481 151.34H125.541V153.5H122.481V151.34ZM120.701 144.54H123.181V161.94H120.701V144.54ZM114.481 147.14H116.501V148.76C116.501 149.907 116.428 151.013 116.281 152.08C116.148 153.133 115.921 154.12 115.601 155.04C115.295 155.947 114.881 156.76 114.361 157.48C113.841 158.2 113.195 158.787 112.421 159.24L110.821 157.22C111.741 156.673 112.468 155.967 113.001 155.1C113.535 154.233 113.915 153.26 114.141 152.18C114.368 151.087 114.481 149.947 114.481 148.76V147.14ZM115.021 147.14H117.041V148.76C117.041 149.84 117.155 150.887 117.381 151.9C117.621 152.913 118.008 153.82 118.541 154.62C119.088 155.42 119.821 156.06 120.741 156.54L119.221 158.56C118.181 158 117.355 157.227 116.741 156.24C116.128 155.253 115.688 154.12 115.421 152.84C115.155 151.56 115.021 150.2 115.021 148.76V147.14ZM111.401 146.12H119.821V148.26H111.401V146.12ZM141.44 144.26H144.1V162.78H141.44V144.26ZM143.5 151.48H146.76V153.68H143.5V151.48ZM129.48 146.98H140.28V149.1H129.48V146.98ZM134.92 150.16C135.813 150.16 136.613 150.353 137.32 150.74C138.026 151.113 138.58 151.627 138.98 152.28C139.393 152.933 139.6 153.693 139.6 154.56C139.6 155.427 139.393 156.193 138.98 156.86C138.58 157.513 138.026 158.033 137.32 158.42C136.626 158.793 135.826 158.98 134.92 158.98C134.026 158.98 133.22 158.793 132.5 158.42C131.793 158.033 131.233 157.513 130.82 156.86C130.42 156.193 130.22 155.427 130.22 154.56C130.22 153.693 130.42 152.933 130.82 152.28C131.233 151.627 131.793 151.113 132.5 150.74C133.22 150.353 134.026 150.16 134.92 150.16ZM134.92 152.32C134.493 152.32 134.12 152.407 133.8 152.58C133.48 152.753 133.226 153.007 133.04 153.34C132.853 153.673 132.76 154.08 132.76 154.56C132.76 155.027 132.853 155.433 133.04 155.78C133.226 156.113 133.48 156.373 133.8 156.56C134.12 156.733 134.493 156.82 134.92 156.82C135.333 156.82 135.7 156.733 136.02 156.56C136.34 156.373 136.593 156.113 136.78 155.78C136.966 155.433 137.06 155.027 137.06 154.56C137.06 154.08 136.966 153.673 136.78 153.34C136.593 153.007 136.34 152.753 136.02 152.58C135.7 152.407 135.333 152.32 134.92 152.32ZM133.56 144.56H136.24V147.8H133.56V144.56ZM152.438 147.18H154.558V149.26C154.558 150.327 154.445 151.373 154.218 152.4C154.005 153.427 153.678 154.393 153.238 155.3C152.812 156.193 152.272 156.987 151.618 157.68C150.965 158.36 150.205 158.9 149.338 159.3L147.818 157.2C148.592 156.84 149.265 156.373 149.838 155.8C150.425 155.227 150.905 154.587 151.278 153.88C151.665 153.16 151.952 152.407 152.138 151.62C152.338 150.82 152.438 150.033 152.438 149.26V147.18ZM153.018 147.18H155.118V149.26C155.118 149.993 155.212 150.74 155.398 151.5C155.598 152.247 155.885 152.96 156.258 153.64C156.632 154.307 157.105 154.907 157.678 155.44C158.252 155.973 158.932 156.4 159.718 156.72L158.258 158.84C157.378 158.453 156.612 157.933 155.958 157.28C155.305 156.627 154.758 155.873 154.318 155.02C153.878 154.167 153.552 153.253 153.338 152.28C153.125 151.293 153.018 150.287 153.018 149.26V147.18ZM148.558 146.02H158.958V148.22H148.558V146.02ZM160.678 144.26H163.338V162.78H160.678V144.26ZM176.397 145.14C177.357 145.14 178.204 145.327 178.937 145.7C179.684 146.073 180.27 146.587 180.697 147.24C181.137 147.88 181.357 148.62 181.357 149.46C181.357 150.3 181.137 151.047 180.697 151.7C180.27 152.353 179.684 152.867 178.937 153.24C178.204 153.613 177.357 153.8 176.397 153.8C175.464 153.8 174.624 153.613 173.877 153.24C173.144 152.867 172.557 152.353 172.117 151.7C171.69 151.047 171.477 150.3 171.477 149.46C171.477 148.62 171.69 147.88 172.117 147.24C172.557 146.587 173.144 146.073 173.877 145.7C174.624 145.327 175.464 145.14 176.397 145.14ZM176.417 147.3C175.964 147.3 175.557 147.387 175.197 147.56C174.837 147.72 174.55 147.967 174.337 148.3C174.137 148.62 174.037 149.007 174.037 149.46C174.037 149.913 174.137 150.3 174.337 150.62C174.55 150.94 174.837 151.187 175.197 151.36C175.557 151.533 175.964 151.62 176.417 151.62C176.87 151.62 177.27 151.533 177.617 151.36C177.977 151.187 178.257 150.94 178.457 150.62C178.67 150.3 178.777 149.913 178.777 149.46C178.777 149.007 178.67 148.62 178.457 148.3C178.257 147.967 177.977 147.72 177.617 147.56C177.27 147.387 176.87 147.3 176.417 147.3ZM183.257 144.26H185.917V153.36H183.257V144.26ZM184.877 148.08H188.377V150.26H184.877V148.08ZM172.977 160.16H174.017C174.55 160.16 175.064 160.147 175.557 160.12C176.064 160.093 176.55 160.04 177.017 159.96C177.497 159.867 177.964 159.74 178.417 159.58L178.797 161.68C178.29 161.853 177.784 161.98 177.277 162.06C176.77 162.153 176.25 162.213 175.717 162.24C175.197 162.28 174.63 162.3 174.017 162.3H172.977V160.16ZM172.977 155.14H175.557V160.82H172.977V155.14ZM178.157 155.2H187.397V157.1H178.157V155.2ZM182.777 157.58C183.83 157.58 184.69 157.82 185.357 158.3C186.024 158.767 186.357 159.393 186.357 160.18C186.357 160.993 186.024 161.633 185.357 162.1C184.69 162.567 183.83 162.8 182.777 162.8C181.724 162.8 180.864 162.567 180.197 162.1C179.53 161.633 179.197 160.993 179.197 160.18C179.197 159.393 179.53 158.767 180.197 158.3C180.864 157.82 181.724 157.58 182.777 157.58ZM182.777 159.38C182.43 159.38 182.137 159.447 181.897 159.58C181.67 159.713 181.557 159.913 181.557 160.18C181.557 160.46 181.67 160.667 181.897 160.8C182.137 160.933 182.43 161 182.777 161C183.124 161 183.41 160.933 183.637 160.8C183.877 160.667 183.997 160.46 183.997 160.18C183.997 159.913 183.877 159.713 183.637 159.58C183.41 159.447 183.124 159.38 182.777 159.38ZM181.497 153.88H184.077V156.64H181.497V153.88ZM191.696 155.34H194.336V156.9H201.756V155.34H204.376V162.58H191.696V155.34ZM194.336 158.9V160.5H201.756V158.9H194.336ZM189.736 152.34H206.496V154.42H189.736V152.34ZM196.756 144.44H199.036V145C199.036 145.653 198.922 146.273 198.696 146.86C198.482 147.447 198.169 147.993 197.756 148.5C197.342 149.007 196.829 149.467 196.216 149.88C195.616 150.28 194.922 150.62 194.136 150.9C193.349 151.167 192.476 151.367 191.516 151.5L190.556 149.44C191.396 149.347 192.149 149.193 192.816 148.98C193.482 148.767 194.062 148.513 194.556 148.22C195.049 147.913 195.456 147.587 195.776 147.24C196.109 146.88 196.356 146.513 196.516 146.14C196.676 145.753 196.756 145.373 196.756 145V144.44ZM197.196 144.44H199.476V145C199.476 145.373 199.556 145.753 199.716 146.14C199.876 146.513 200.116 146.88 200.436 147.24C200.769 147.587 201.182 147.913 201.676 148.22C202.169 148.513 202.749 148.767 203.416 148.98C204.096 149.193 204.849 149.347 205.676 149.44L204.716 151.5C203.756 151.367 202.882 151.167 202.096 150.9C201.322 150.62 200.629 150.28 200.016 149.88C199.402 149.467 198.889 149.007 198.476 148.5C198.062 147.993 197.742 147.447 197.516 146.86C197.302 146.26 197.196 145.64 197.196 145V144.44ZM220.974 144.24H223.614V162.76H220.974V144.24ZM209.114 146H211.774V157.52H209.114V146ZM209.114 155.94H210.754C212.114 155.94 213.534 155.887 215.014 155.78C216.494 155.66 218.001 155.447 219.534 155.14L219.814 157.36C218.241 157.693 216.687 157.92 215.154 158.04C213.634 158.147 212.167 158.2 210.754 158.2H209.114V155.94ZM238.372 144.22H241.052V162.8H238.372V144.22ZM240.472 151.08H243.732V153.28H240.472V151.08ZM227.252 156.16H228.812C229.866 156.16 230.852 156.147 231.772 156.12C232.692 156.08 233.586 156.02 234.452 155.94C235.319 155.847 236.206 155.72 237.112 155.56L237.372 157.76C236.439 157.92 235.519 158.047 234.612 158.14C233.719 158.233 232.799 158.293 231.852 158.32C230.906 158.347 229.892 158.36 228.812 158.36H227.252V156.16ZM227.252 145.94H235.892V148.08H229.912V157.2H227.252V145.94ZM245.4 159.74C245.4 159.35 245.534 159.021 245.801 158.754C246.068 158.487 246.429 158.354 246.885 158.354C247.34 158.354 247.702 158.487 247.969 158.754C248.236 159.021 248.369 159.35 248.369 159.74C248.369 160.124 248.236 160.45 247.969 160.717C247.702 160.977 247.34 161.107 246.885 161.107C246.429 161.107 246.068 160.977 245.801 160.717C245.534 160.45 245.4 160.124 245.4 159.74Z" fill="#D1D1D1"/>
</svg>
