<svg width="20" height="20" viewBox="0 0 20 20" fill="none" xmlns="http://www.w3.org/2000/svg">
<path d="M18.2251 6.35687L13.6432 1.775C12.9432 1.075 11.8088 1.075 11.1095 1.775C10.4095 2.475 10.4095 3.60938 11.1095 4.30875L15.6913 8.89125C16.3913 9.59125 17.5257 9.59125 18.2251 8.89125C18.9251 8.19125 18.9251 7.05687 18.2251 6.35687Z" fill="#B0B0B0"/>
<path d="M5.19041 7.59688C4.59666 7.00313 3.63416 7.00313 3.04104 7.59688L2.27229 8.36563C2.06354 8.57438 2.06354 8.9125 2.27229 9.12063L10.8792 17.7275C11.0879 17.9363 11.426 17.9363 11.6342 17.7275L12.4029 16.9588C12.9967 16.365 12.9967 15.4025 12.4029 14.8094L5.19041 7.59688Z" fill="#B0B0B0"/>
<path d="M2.0193 15.6031C1.7643 15.8581 1.5968 16.1881 1.5418 16.5444L1.25368 18.405C1.22243 18.605 1.39493 18.7775 1.59493 18.7462L3.45555 18.4581C3.8118 18.4031 4.1418 18.2356 4.3968 17.9806L8 14.5003L5.6225 12.1228L2.0193 15.6031Z" fill="#B0B0B0"/>
<path d="M8.73219 6.61938C7.86344 7.19625 6.295 7.73235 5.5 7.99985L12 14.4998C12.2675 13.7042 12.8034 12.1363 13.3803 11.2675C13.9697 10.3794 14.8906 9.01985 15.5 8.49985L11.5 4.49985C10.98 5.1086 9.61969 6.03 8.73219 6.61938Z" fill="#B0B0B0"/>
</svg>
