<svg width="20" height="20" viewBox="0 0 20 20" fill="none" xmlns="http://www.w3.org/2000/svg">
<path d="M18 10C18 14.4113 14.4098 18 9.99649 18C5.69661 18 2.1844 14.6387 2.00032 10.3473C1.99232 10.1633 2.13505 10.008 2.31913 10C2.49987 10.0073 2.65861 10.1347 2.66661 10.3193C2.83469 14.2527 6.05476 17.3333 9.99649 17.3333C14.0416 17.3333 17.333 14.0433 17.333 10C17.333 5.95667 14.0416 2.66667 9.99649 2.66667C7.49473 2.66667 5.22173 3.91333 3.85914 6H6.99518C7.17926 6 7.32866 6.14933 7.32866 6.33333C7.32866 6.51733 7.17926 6.66667 6.99518 6.66667H3.66038C3.10881 6.66667 2.65994 6.218 2.65994 5.66667V2.33333C2.65994 2.14933 2.80934 2 2.99342 2C3.1775 2 3.3269 2.14933 3.3269 2.33333V5.59933C4.81555 3.346 7.28264 2 9.99649 2C14.4098 2 18 5.58867 18 10Z" fill="#2A2A2A" stroke="#2A2A2A" stroke-width="0.4"/>
</svg>
