<svg width="40" height="40" viewBox="0 0 40 40" fill="none" xmlns="http://www.w3.org/2000/svg">
<path d="M18.1528 5.60529C19.0125 4.13157 20.9875 4.13157 21.8472 5.60529L37.1553 31.8464C38.1097 33.4823 36.9751 35.5 35.3081 35.5H4.69193C3.02492 35.5 1.89035 33.4823 2.84471 31.8464L18.1528 5.60529Z" stroke="#FC1456" stroke-linejoin="round"/>
<path d="M19.2317 25.7697C19.399 25.9307 19.6254 26.0011 19.8912 26.0011C20.1569 26.0011 20.3735 25.9206 20.5408 25.7697C20.6983 25.6087 20.7869 25.4075 20.8066 25.156L21.1904 18.1432V16.0404C21.1904 15.6681 21.0625 15.3461 20.8164 15.0946C20.3243 14.5714 19.4581 14.5714 18.9463 15.0845C18.7002 15.3461 18.5723 15.6681 18.5723 16.0404V18.1532L18.9463 25.166C18.966 25.4075 19.0644 25.6188 19.2317 25.7697Z" fill="#FC1456"/>
<path d="M19.8924 27.1685C19.4889 27.1685 19.1444 27.3294 18.8589 27.6212C18.5735 27.913 18.416 28.2651 18.416 28.6777C18.416 29.1002 18.5735 29.4625 18.8589 29.7542C19.1444 30.046 19.4889 30.1969 19.8924 30.1969C20.3058 30.1969 20.6601 30.046 20.9456 29.7542C21.231 29.4625 21.3787 29.1002 21.3787 28.6777C21.3787 28.2651 21.231 27.913 20.9456 27.6212C20.6503 27.3194 20.3058 27.1685 19.8924 27.1685Z" fill="#FC1456"/>
</svg>
