<svg width="28" height="28" viewBox="0 0 28 28" fill="none" xmlns="http://www.w3.org/2000/svg">
<path fill-rule="evenodd" clip-rule="evenodd" d="M26.88 14.3049C26.88 13.3535 26.7946 12.4387 26.6361 11.5605H14V16.7503H21.2206C20.9096 18.4274 19.9644 19.8484 18.5434 20.7997V24.1661H22.8794C25.4164 21.8303 26.88 18.3909 26.88 14.3049Z" fill="#4285F4"/>
<path fill-rule="evenodd" clip-rule="evenodd" d="M13.9999 27.4163C17.6224 27.4163 20.6594 26.2149 22.8793 24.1659L18.5433 20.7995C17.3418 21.6045 15.805 22.0801 13.9999 22.0801C10.5055 22.0801 7.54769 19.7201 6.49265 16.5488H2.01025V20.025C4.21791 24.4098 8.75519 27.4163 13.9999 27.4163Z" fill="#34A853"/>
<path fill-rule="evenodd" clip-rule="evenodd" d="M6.49293 16.5491C6.2246 15.7441 6.07214 14.8842 6.07214 14C6.07214 13.1156 6.2246 12.2558 6.49293 11.4508V7.97461H2.01054C1.10187 9.78586 0.583496 11.835 0.583496 14C0.583496 16.1648 1.10187 18.214 2.01054 20.0252L6.49293 16.5491Z" fill="#FBBC05"/>
<path fill-rule="evenodd" clip-rule="evenodd" d="M13.9999 5.92016C15.9697 5.92016 17.7383 6.59709 19.1287 7.92657L22.9768 4.07842C20.6533 1.91346 17.6162 0.583984 13.9999 0.583984C8.75519 0.583984 4.21791 3.59054 2.01025 7.97534L6.49265 11.4515C7.54769 8.28027 10.5055 5.92016 13.9999 5.92016Z" fill="#EA4335"/>
</svg>
