<svg width="28" height="28" viewBox="0 0 28 28" fill="none" xmlns="http://www.w3.org/2000/svg">
<path d="M13.9727 2.625C16.3704 2.625 18.5881 3.09166 20.6257 4.02498C22.6633 4.9583 24.2742 6.22743 25.4582 7.83234C26.6423 9.4372 27.2344 11.1878 27.2344 13.0841C27.2344 14.9803 26.6423 16.7334 25.4582 18.3433C24.2742 19.9531 22.6658 21.2247 20.6331 22.158C18.6004 23.0913 16.3803 23.558 13.9727 23.558C13.2129 23.558 12.4284 23.5037 11.6193 23.395C8.10649 25.8345 6.23667 27.0691 6.00972 27.0986C5.90116 27.1382 5.79753 27.1332 5.69887 27.0839C5.65939 27.0542 5.6298 27.0147 5.61006 26.9653C5.59032 26.9159 5.58048 26.8715 5.58048 26.832V26.7728C5.6397 26.3875 6.08863 24.7827 6.92737 21.958C5.02297 21.0099 3.5108 19.7531 2.39086 18.1877C1.27091 16.6223 0.710938 14.9211 0.710938 13.0841C0.710938 11.1878 1.30298 9.4372 2.48706 7.83234C3.67114 6.22743 5.28199 4.9583 7.31959 4.02498C9.35719 3.09166 11.5749 2.625 13.9727 2.625Z" fill="black"/>
</svg>
